<?xml version="1.0" encoding="UTF-8" standalone="no"?>
<svg xmlns="http://www.w3.org/2000/svg" version="1.0" viewBox="-20 0 680 878">
	<defs id="defs7">
   text { z-index: -1;}
   </defs>
	<g id="layer1">
		<path id="path2289" style="fill:#ffdd55;stroke:#000000" d="M 505.38067,783.15949 C 506.71816,785.23669 508.84445,786.64073 510.201,789.005 C 512.983,793.854 515.269,801.409 515.636,807 C 515.866,810.514 511.605,815.325 513.241,818.481 C 514.566,821.038 519.329,820.477 521.427,822.517 C 527.235,828.162 524.957,840.382 521,846 L 506.318,839.701 L 497.995,828.515 L 484,832.215 L 459,824 C 458.253,826.519 458.58,831.244 456.397,832.972 C 453.852,834.986 449.034,833.809 446,834.375 C 434.654,836.491 419.217,833.857 409.09,840.147 C 403.764,843.455 395.989,847.576 391.34,851.638 C 387.766,854.761 386.387,860.23 380.999,860.968 C 375.143,861.771 363.84679,851.39679 359.6744,847.5974 C 367.522,844.084 362.48,827.181 371.094,824.952 C 383.351,821.78 383.38,850.379 395.08,832.996 C 396.312,831.166 397.301,829.176 397.725,827 C 400.2,814.312 389.776,812.41 388.333,802 C 387.559,796.419 392.168,790.717 388.972,785.133 C 383.479,775.533 370.786,780.5 374.303,765.001 C 376.247,756.433 386.436,747.731 394,744.246 C 398.881,741.998 407.467,740.158 410.01034,734.78655 C 422.40868,734.66711 437.477,729.62 448.999,735.603 C 456.956,739.735 454.945,746.075 459.603,751.686 C 464.12,757.126 474.769,756 481,756 C 486.297,763.364 480.003,779.411 490.054,783.397 C 493.796,784.881 502.08078,785.16082 505.38067,783.15949 z "  />
		<path id="path2274" style="fill:#ffe680;stroke:#000000" d="M 505.38067,783.15949 C 502.08078,785.16082 493.796,784.881 490.054,783.397 C 480.003,779.411 486.297,763.364 481,756 C 483.982,753.104 486.966,750.134 491,748.769 C 493.262,748.003 497.423,748.593 498.918,746.397 C 500.722,743.746 497.723,739.545 496.915,737 C 495.547,732.692 495.057,725.53 496.318,721.133 C 497.733,716.199 506.011,713.128 508.775,708 C 516.781,693.151 516.83,676.53416 528,663.66208 C 530.858,666.062 534.977,666.526 537.996,669.144 C 541.919,672.546 544.553,678.481 549.093,680.973 C 552.98,683.106 557.984,681.934 561.946,684.164 C 570.628,689.052 572.84,701.064 573.496,710 C 574.928,729.502 557.185,715.799 548.264,722.148 C 541.827,726.729 543.468,740.068 539.106,747 C 531.41,759.229 506.174,761.938 504.152,776.995 C 503.83512,779.35339 504.33708,781.53877 505.38067,783.15949 z "  />
		<path id="path2266" style="fill:#ffcc00;stroke:#000000" d="M 424.95029,626.54731 C 424.99319,616.77725 424.45943,607.02258 423.957,598 C 423.477,589.384 420.262,580.794 422.474,572 C 425.5534,559.75754 437.91237,546.98415 450.81172,546.67219 C 451.78342,562.938 469.123,562.69 474.628,575.001 C 478.249,583.098 467.875,593.04 470.765,602 C 473.175,609.473 481.845,623.692 488.054,628.491 C 493.944,633.043 502.081,635.15 507.737,639.599 C 515.555,645.748 520.529,656.572 528,663.66208 C 516.83,676.53416 516.781,693.151 508.775,708 C 506.011,713.128 497.733,716.199 496.318,721.133 C 495.057,725.53 495.547,732.692 496.915,737 C 497.723,739.545 500.722,743.746 498.918,746.397 C 497.423,748.593 493.262,748.003 491,748.769 C 486.966,750.134 483.982,753.104 481,756 C 474.769,756 464.12,757.126 459.603,751.686 C 454.945,746.075 456.956,739.735 448.999,735.603 C 437.477,729.62 422.40868,734.66711 410.01034,734.78655 C 412.247,730.331 410.092,713.244 406.397,709.606 C 403.855,707.104 399.517,709.059 398.318,704.902 C 392.801,685.775 416.606,677.872 421.134,661 C 423.99146,650.35466 424.89807,638.43958 424.95029,626.54731"  />
		<path id="path2306" style="fill:#fff6d5;stroke:#000000" d="M 306.58535,659.69936 C 319.17835,654.43436 328.54241,655.20067 338.0598,665.35791 C 336.38128,666.95715 335.25009,668.70906 336.318,673 C 337.627,678.26 343.296,680.306 345.258,685.09 C 347.088,689.552 344.593,695.06 349.148,698.393 C 354.591,702.375 361.159,695.838 366.91,696.527 C 371.591,697.088 374.19,703.508 378.039,705.852 C 383.498,709.175 392.04667,709.42593 398.43678,705.02508 C 399.517,709.059 403.855,707.104 406.397,709.606 C 410.092,713.244 412.247,730.331 410.022,734.906 C 407.467,740.158 398.881,741.998 394,744.246 C 386.436,747.731 376.247,756.433 374.303,765.001 C 370.786,780.5 383.479,775.533 388.972,785.133 C 392.168,790.717 387.559,796.419 388.333,802 C 389.776,812.41 400.2,814.312 397.725,827 C 397.301,829.176 396.312,831.166 395.08,832.996 C 383.38,850.379 383.351,821.78 371.094,824.952 C 362.48,827.181 367.522,844.084 359.683,847.529 C 350.996,851.347 336.847,839.595 328.361,842.732 C 325.335,843.851 328.052,851.489 327.977,854 C 327.84,858.587 317.173,869.874 312.274,869.079 C 310.191,868.74 309.631,865.671 308.417,864.309 C 304.174,859.55 299.685,854.324 295.236,849.473 C 289.147,842.834 278.436,840.642 270,839 C 272.6,834.044 278.137,828.827 284,828.166 C 290.809,827.398 296.261,832.75 301.076,824.981 C 314.949,802.598 289.191,776.087 294.302,753 C 296.521,742.981 306.109,740.298 311.347,732.981 C 314.709,728.286 313.394,722.56 317.133,718 C 320.782,713.551 327.412,709.065 327.941,702.985 C 329.038,690.392 316.785,688.061 311.608,678.871 C 308.62836,673.58201 307.36788,666.74345 306.58535,659.69936 z "  />
		<path id="path2337" style="fill:#ffe680;stroke:#000000" d="M 398.43678,705.02508 C 391.92789,709.30286 383.498,709.175 378.039,705.852 C 374.19,703.508 371.591,697.088 366.91,696.527 C 361.159,695.838 354.591,702.375 349.148,698.393 C 344.593,695.06 347.088,689.552 345.258,685.09 C 343.296,680.306 337.627,678.26 336.318,673 C 335.25009,668.70906 336.38128,666.95715 338.21218,665.54915 C 339.8908,664.25825 342.15758,663.25644 343.857,660.852 C 347.352,655.905 348.195,650.434 353.019,646.214 C 361.437,638.849 370.347,641.991 380,639.686 C 384.689,638.566 387.522,634.13 392,632.589 C 396.677,630.979 402.155,632.466 407,631.791 C 412.611,631.009 419.32526,627.31431 424.90627,626.53631 C 424.89807,638.43958 423.99146,650.35466 421.134,661 C 416.606,677.872 392.91978,685.89807 398.43678,705.02508 z "  />
		<path id="path2329" style="fill:#ffdd55;stroke:#000000" d="M 450.63278,546.18535 C 437.69013,546.82512 425.5534,559.75754 422.474,572 C 420.262,580.794 423.477,589.384 423.957,598 C 424.45943,607.02258 424.99319,616.77725 424.90627,626.53631 C 419.32526,627.31431 412.611,631.009 407,631.791 C 402.155,632.466 396.677,630.979 392,632.589 C 387.522,634.13 384.689,638.566 380,639.686 C 370.347,641.991 361.437,638.849 353.019,646.214 C 348.195,650.434 347.352,655.905 343.857,660.852 C 342.15758,663.25644 339.8908,664.25825 338.0598,665.35791 C 328.54241,655.20067 319.35226,654.38315 306.75926,659.64815 C 306.75926,659.64815 319.35226,654.38315 306.58535,659.69936 C 305.4533,651.12556 305.47247,642.11563 304.829,635 C 304.49437,631.2913 302.48149,626.1282 302.64512,621.9888 C 302.68784,620.90805 302.87894,619.89708 303.287,619 C 306.534,611.863 313.085,601.701 320.004,597.803 C 329.034,592.717 343.496,589.041 348.543,578.999 C 352.61991,570.8875 350.25312,557.81974 349.93794,548.08945 C 349.90315,547.01524 349.89335,545.9817 349.92,545 C 350.044,540.437 349.588,534.698 354.189,532.028 C 365.02,525.742 375.275,539.269 384.852,537.133 C 390.271,535.924 387.062,523.266 390.724,519.313 C 392.15035,517.77317 393.59955,516.27757 395.12842,514.99128 C 396.48095,517.53763 397.881,522.553 399.599,524.656 C 408.639,535.724 421.114,521.785 430.999,522.458 C 439.379,523.03 448.67078,538.97835 450.63278,546.18535 z "  />
		<path id="path2325" style="fill:#ffcc00;stroke:#000000" d="M 282.76339,620.31174 C 278.96439,624.14474 275.13,630.083 270.896,633.351 C 256.438,644.509 236.512,649.481 222.17,661.469 C 217.317,665.525 212.999,670.938 211.013,677 C 209.83,680.609 210.818,685.432 207.682,688.121 C 203.572,691.645 197.498,690.178 193,692.858 C 185.624,697.253 186.654,702.528 182.972,708.675 C 179.882,713.835 174.411,715.605 172.61,722 C 166.106,745.091 175.492,768.817 191.075,786 C 195.474,790.851 204.287,802.327 211.995,800.012 C 220.608,797.426 217.907,788.023 221.028,782.039 C 223.047,778.167 227.341,776.206 228.986,771.996 C 230.04,769.299 229.785,766.441 227.681,764.318 C 222.069,758.654 208.317,759.29 201.005,754.16 C 197.776,751.896 191.482,743.997 199.059,742.719 C 205.006,741.716 210.551,745.555 216,747.12 C 225.072,749.727 237.005,745.357 241.512,757.001 C 244.154,763.829 238.305,771.366 241.564,778.981 C 243.132,782.645 246.998,783.906 249.062,787.129 C 251.557,791.026 251.896,797.485 251.985,802 C 252.199,812.953 245.73,822.606 248.127,833.995 C 250.229,843.984 263.362,843.066 270,839 C 272.6,834.044 278.137,828.827 284,828.166 C 290.809,827.398 296.261,832.75 301.076,824.981 C 314.949,802.598 289.191,776.087 294.302,753 C 296.521,742.981 306.109,740.298 311.347,732.981 C 314.709,728.286 313.394,722.56 317.133,718 C 320.782,713.551 327.412,709.065 327.941,702.985 C 329.038,690.392 316.785,688.061 311.608,678.871 C 308.62836,673.58201 307.19397,666.79466 306.41144,659.75057 C 305.4533,651.12556 305.47247,642.11563 304.829,635 C 304.49437,631.2913 302.48149,626.1282 302.40589,622.05921 C 297.02167,622.12963 286.97139,623.85374 282.76339,620.31174 z "  />
		<path id="path2314" style="fill:#ffe680;stroke:#000000" d="M 160.81481,683.88883 C 158.22081,690.09183 156.687,697.954 151.815,702.87 C 146.951,707.778 140.921,709.396 137.684,716.004 C 131.268,729.1 130.592,746.125 125.58,760 C 123.033,767.051 115.535,772.522 114.296,780 C 113.294,786.053 116.677,792.561 115.867,799 C 114.268,811.718 104.195,831.565 120.004,840.485 C 124.198,842.852 127.685,840.613 132,840.129 C 136.898,839.579 142.215,840.86 147,839.49 C 151.916,838.082 155.578,834.129 161,834.152 C 164.682,834.168 166.699,836.8 170,837.728 C 173.451,838.699 186.333,837.851 190,837 C 187.547,832.014 178.092,829.948 178.542,823.995 C 179.01,817.813 185.531,814.923 190.985,816.318 C 198.633,818.274 205.307,826.92 213.039,828.883 C 223.951,831.653 236.40078,830.26781 247.93389,833.9049 C 245.73,822.606 252.199,812.953 251.985,802 C 251.896,797.485 251.557,791.026 249.062,787.129 C 246.998,783.906 243.132,782.645 241.564,778.981 C 238.305,771.366 244.154,763.829 241.512,757.001 C 237.005,745.357 225.072,749.727 216,747.12 C 210.551,745.555 205.006,741.716 199.059,742.719 C 191.482,743.997 197.776,751.896 201.005,754.16 C 208.317,759.29 222.069,758.654 227.681,764.318 C 229.785,766.441 230.04,769.299 228.986,771.996 C 227.341,776.206 223.047,778.167 221.028,782.039 C 217.907,788.023 220.608,797.426 211.995,800.012 C 204.287,802.327 195.474,790.851 191.075,786 C 175.492,768.817 166.106,745.091 172.61,722 C 174.411,715.605 179.882,713.835 182.972,708.675 C 186.654,702.528 185.624,697.253 193,692.858 C 197.498,690.178 203.572,691.645 207.682,688.121 C 210.818,685.432 209.83,680.609 211.013,677 C 212.999,670.938 217.317,665.525 222.17,661.469 C 236.512,649.481 256.438,644.509 270.896,633.351 C 275.13,630.083 278.97878,624.31448 282.76339,620.31174 C 276.854,615.178 267.638,597.423 259.896,596.528 C 243.876,594.676 244.2687,620.84411 225.59485,614.63405 C 218.406,622.732 212.629,611.285 205,610.209 C 198.86156,609.34318 192.99199,610.24597 187.14146,610.83991 L 189.737,627 L 176.228,652 L 172.45,666 L 161,684"  />
		<path id="path2310" style="fill:#fff6d5;stroke:#000000" d="M 349.79136,548.15219 C 350.10654,557.88247 352.61991,570.8875 348.543,578.999 C 343.496,589.041 329.034,592.717 320.004,597.803 C 313.085,601.701 306.534,611.863 303.287,619 C 302.87894,619.89708 302.68784,620.90805 302.40589,622.05921 C 297.02167,622.12963 286.957,623.684 282.749,620.142 C 282.749,620.142 286.957,623.684 282.749,620.142 C 276.854,615.178 267.638,597.423 259.896,596.528 C 243.876,594.676 244.2687,620.84411 225.59485,614.63405 C 232.172,607.03 223.084,594.695 220.789,587 C 218.603,579.671 223.83708,572.66246 223.17419,565.83708 C 228.39031,560.48369 233.141,550.748 241.946,552.149 C 247.279,552.997 248.666,559.289 254.985,557.227 C 259.257,555.833 260.618,552.353 263.47,549.339 C 267.052,545.553 272.251,544.006 275.736,539.96 C 279.102,536.051 280.073,530.79 284.058,527.344 C 288.859,523.192 295.823,524.417 299.652,518.87 C 301.92777,515.57343 302.79039,512.77982 302.89808,510.31664 C 314.08469,514.78623 324.906,523.393 332.791,532.054 C 338.391,538.205 341.42435,544.91619 349.79136,548.15219 z "  />
		<path id="path2250" style="fill:#fff6d5;stroke:#000000" d="M 187.14146,610.83991 L 189.737,627 L 176.228,652 L 172.45,666 L 161,684 C 157.4,680.239 154.022,674.67 148.999,672.742 C 141.234,669.761 131.76,674.263 124,671.397 C 117.358,668.943 115.733,660.838 108,660.145 C 101.222,659.538 96.5836,668.129 90.9853,666.802 C 88.5821,666.233 80.4953,664.255 79.0278,662.397 C 76.9559,659.773 79.6735,654.022 75.806995,652.7734 C 77.158091,649.53681 81.9397,642.529 86.1852,641.921 C 89.993,641.375 93.8363,647.842 96.9722,642.833 C 100.376,637.396 97.8123,628.937 100.225,623 C 102.053,618.499 106.206,611.722 110.259,608.938 C 113.818,606.493 118.253,606.842 121.561,603.721 C 129.965,595.791 129.734,586.01 143,586 C 151.87,592.171 156.044,603.351 166,608.393 C 173.20307,612.04059 180.09777,611.61394 187.14146,610.83991 z "  />
		<path id="path2242" style="fill:#ffdd55;stroke:#000000" d="M 208,556 C 213.813,556.021 222.56808,558.85546 223.20808,565.81446 C 223.20808,565.81446 222.56808,558.85546 223.20808,565.81446 C 223.83708,572.66246 218.603,579.671 220.789,587 C 223.084,594.695 232.172,607.03 225.486,614.657 C 218.406,622.732 212.629,611.285 205,610.209 C 198.86156,609.34318 192.99199,610.24597 187.19033,610.88351 C 180.14664,611.65754 173.20307,612.04059 166,608.393 C 156.044,603.351 151.87,592.171 143,586 C 146.00632,581.8205 146.92416,575.86047 146.18196,570.00306 L 163.999,566.202 L 176.015,572.351 L 189.09,567.297 L 196.981,568.173 L 208,556 z "  />
		<path id="path2268" style="fill:#fff6d5;stroke:#000000" d="M 558.12446,414.15778 C 563.60046,421.25378 574.751,428.891 584,427.871 C 588.663,427.357 593.195,424.987 597.996,425.398 C 601.565,425.704 603.653,429.157 607.089,429.427 C 619.696,430.416 625.38389,428.61063 636.19377,438.33395 C 635.19184,442.74024 633.92107,447.02355 632.857,451 C 631.559,455.847 631.121,463.719 627.991,467.683 C 625.799,470.458 619.372,471.798 617.027,468.552 C 611.64,461.095 609.274,439.188 594.323,446.603 C 588.087,449.695 601.175,455.072 598.248,459.567 C 596.064,462.923 589.356,463.154 586.039,465.125 C 581.731,467.686 579.486,472.638 574.999,474.977 C 570.207,477.475 564.063,481.966 559,483.486 C 555.521,484.53 551.435,483.159 548.188,485.028 C 543.284,487.851 539.393,494.864 534.714,498.589 C 527.224,504.551 516.965,506.875 509.094,512.009 C 506.059,513.989 504.853,517.815 501.737,519.566 C 495.456,523.097 486.843,519.863 480.055,521.863 C 468.264,525.337 462.199,536.692 457,547 C 454.95997,546.44517 452.90021,546.24328 450.63278,546.18535 C 448.44853,538.81932 439.379,523.03 430.999,522.458 C 421.114,521.785 408.639,535.724 399.599,524.656 C 397.881,522.553 396.48095,517.53763 395.12842,514.99128 C 404.13922,505.95678 414.2957,498.8853 427,494.474 C 431.211,493.012 444.598,492.896 445.793,487.852 C 447.655,479.992 439.477,478.614 434,478.914 C 427.374,479.278 420.503,479.027 414,480.598 C 408.537,481.918 401.839,485.958 396.059,484.643 C 386.092,482.375 400.432,470.801 405,470.069 C 409.435,469.357 413.741,468.453 418,467 C 415.73333,462.17355 409.16434,457.72465 412.54187,453.15286 C 413.09369,452.40591 413.91102,451.65569 415.056,450.9 C 427.533,442.663 431.138,465.639 442.906,457.991 C 451.29,452.542 447.264,437.495 451.438,429.001 C 463.919,403.6 488.601,406.34 510,413.415 C 520.787,416.982 537.577,416.133 549,415.996 C 551.35878,415.96775 555.84464,415.93451 558.12446,414.15778 z "  />
		<path id="path2224" style="fill:#ffe680;stroke:#000000" d="M 412.29725,452.98695 C 408.91972,457.55874 415.73333,462.17355 418,467 C 413.741,468.453 409.435,469.357 405,470.069 C 400.432,470.801 386.092,482.375 396.059,484.643 C 401.839,485.958 408.537,481.918 414,480.598 C 420.503,479.027 427.374,479.278 434,478.914 C 439.477,478.614 447.655,479.992 445.793,487.852 C 444.598,492.896 431.211,493.012 427,494.474 C 414.2957,498.8853 404.13922,505.95678 395.0779,514.82992 C 393.59955,516.27757 392.15035,517.77317 390.724,519.313 C 387.062,523.266 390.271,535.924 384.852,537.133 C 375.275,539.269 365.02,525.742 354.189,532.028 C 349.588,534.698 350.044,540.437 349.92,545 C 349.89335,545.9817 349.90315,547.01524 349.79136,548.15219 C 341.27777,544.97892 338.391,538.205 332.791,532.054 C 324.906,523.393 314.08469,514.78623 302.89808,510.31664 C 302.51633,501.33709 290.51914,496.12352 289.133,485 C 288.319,478.471 288.949,469.832 292.13,464 C 295.972,456.955 304.495,449.126 305.505,441 C 306.717,431.256 294.095,421.312 295.672,413 C 298.308,399.102 313.762,392.987 326,392.09 C 330.644,391.75 341.991,394.624 343.74575,388.75288 C 351.1185,398.60777 355.936,406.847 368,411.99 C 375.297,415.101 382.799,414.001 388.853,420.188 C 395.526,427.009 390.429,436.374 394.318,443.96 C 397.171,449.525 406.70725,451.83895 412.29725,452.98695 z "  />
		<path id="path2240" style="fill:#ffcc00;stroke:#000000" d="M 208,556 L 206.51642,546.83389 C 209.82184,544.56577 215.877,540.232 220,540.867 C 223.606,541.421 227.05,546.388 230.853,544.825 C 240.047,541.046 237.229,508.674 253,522 C 256.335,517.364 255.705,513.456 256.044,508 C 256.32,503.559 260.351,499.403 259.289,495.019 C 257.839,489.031 252.447,490.941 248.09,489.416 C 245.563,488.532 243.775,486.383 240.961,486.276 C 227.389,485.761 218.772,497.99 206,498 C 195.7019,491.70672 191.76939,470.9916 196.65739,457.34552 C 196.65739,457.34552 191.76939,470.9916 196.65739,457.34552 C 197.88669,453.91362 199.67387,450.92883 202.058,448.733 C 206.236,444.885 218.913,432.146 224.852,434.608 C 229.909,436.705 225.68,460.581 235.697,453.218 C 243.164,447.728 236.638,436.443 235.299,430 C 234.208,424.753 234.97,418.159 236.238,413 C 239.175,401.058 256.94274,399.71984 258.01189,388.14342 C 262.08705,387.741 267.981,385.081 271.941,386.608 C 282.139,390.539 274.579,414.811 277,423 C 283.452,417.455 285.49424,413.25224 295.48562,413.10862 C 294.095,421.312 306.717,431.256 305.505,441 C 304.495,449.126 295.972,456.955 292.13,464 C 288.949,469.832 288.319,478.471 289.133,485 C 290.51914,496.12352 302.51633,501.33709 302.73047,510.27804 C 302.79039,512.77982 301.92777,515.57343 299.652,518.87 C 295.823,524.417 288.859,523.192 284.058,527.344 C 280.073,530.79 279.102,536.051 275.736,539.96 C 272.251,544.006 267.052,545.553 263.47,549.339 C 260.618,552.353 259.257,555.833 254.985,557.227 C 248.666,559.289 247.279,552.997 241.946,552.149 C 233.141,550.748 228.39031,560.48369 223.17419,565.83708 C 222.56808,558.85546 223.20808,565.81446 223.20808,565.81446 C 222.56808,558.85546 213.813,556.021 208,556"  />
		<path id="path2245" style="fill:#fff6d5;stroke:#000000" d="M 239.67037,291.1847 C 238.35107,293.23588 236.75204,295.16444 234.981,297 C 231.248,300.869 227.448,305.089 222,306.311 C 210.401,308.914 215.277,296.986 211.821,291.148 C 209.682,287.536 204.679,287.699 201,288.109 C 198.809,288.353 196.851,289.005 195.133,290.434 C 181.495,301.772 197.494,313.851 193.357,325.96 C 190.701,333.735 177.328,336.995 172,343 L 176.04,344.251 C 186.686,347.687 174.015,352.633 174.623,359.001 C 175.263,365.698 181.572,370.006 180.482,377 C 179.019,386.389 171.851,390.442 163,387.895 C 148.8,383.809 118.468,372.947 112,395 C 115.71,400.626 121.855,405.475 124.977,411.09 C 126.79,414.35 126.213,418.867 130.189,420.716 C 137.03,423.897 149.282,411.452 154.917,423.13 C 158.348,430.238 142.03587,436.174 141.68887,444.721 C 141.36846,452.57668 141.68887,444.721 141.68887,444.721 C 141.36846,452.57668 142.90622,462.20239 145.95882,470.16692 C 146.75516,472.24463 147.65458,474.2093 148.651,476 C 150.124,478.648 151.557,483.428 155.093,483.94 C 160.095,484.663 164.656,476.066 168.171,473.394 C 172.889,469.807 178.822,471.345 183.961,469.143 C 188.66,467.129 193.29446,457.07077 196.56907,457.27172 C 197.88669,453.91362 199.67387,450.92883 202.058,448.733 C 206.236,444.885 218.913,432.146 224.852,434.608 C 229.909,436.705 225.68,460.581 235.697,453.218 C 243.164,447.728 236.638,436.443 235.299,430 C 234.208,424.753 234.97,418.159 236.238,413 C 239.175,401.058 256.94274,399.71984 258.00274,388.28684 C 259.28374,374.48584 253.843,352.147 247.116,340.001 C 242.871,332.338 231.971,327.468 230.724,318 C 229.739,310.523 242.10984,299.2127 239.67037,291.1847 z "  />
		<path id="path2238" style="fill:#ffe680;stroke:#000000" d="M 196.56907,457.27172 C 191.68107,470.9178 195.7019,491.70672 206,498 L 198.039,523 L 199.603,542.852 L 206.397,547.023 L 208,556 L 196.981,568.173 L 189.09,567.297 L 176.015,572.351 L 163.999,566.202 L 146.18196,570.00306 C 145.50598,564.00893 143.08999,558.12264 139.481,554.375 C 135.531,550.273 129.078,547.936 127.434,541.996 C 123.472,527.685 130,510.544 129.96219,496.14538 C 131.82037,486.07975 135.30525,475.86575 145.69454,470.36834 C 146.75516,472.24463 147.65458,474.2093 148.651,476 C 150.124,478.648 151.557,483.428 155.093,483.94 C 160.095,484.663 164.656,476.066 168.171,473.394 C 172.889,469.807 178.822,471.345 183.961,469.143 C 188.66,467.129 193.38277,457.14457 196.56907,457.27172 z "  />
		<path id="path2441" style="fill:#ffdd55;fill-opacity:1;stroke:#000000" d="M 206.51642,546.83389 C 209.70242,544.75489 215.877,540.232 220,540.867 C 223.606,541.421 227.05,546.388 230.853,544.825 C 240.047,541.046 237.229,508.674 253,522 C 256.335,517.364 255.705,513.456 256.044,508 C 256.32,503.559 260.351,499.403 259.289,495.019 C 257.839,489.031 252.447,490.941 248.09,489.416 C 245.563,488.532 243.775,486.383 240.961,486.276 C 227.389,485.761 218.772,497.99 206,498 L 198.039,523 L 199.603,542.852 L 206.51642,546.83389 z "  />
		<path id="path2261" style="fill:#ffcc00;stroke:#000000" d="M 75.806995,652.7734 C 77.113395,649.4954 81.9397,642.529 86.1852,641.921 C 89.993,641.375 93.8363,647.842 96.9722,642.833 C 100.376,637.396 97.8123,628.937 100.225,623 C 102.053,618.499 106.206,611.722 110.259,608.938 C 113.818,606.493 118.253,606.842 121.561,603.721 C 129.965,595.791 129.734,586.01 143,586 C 146.00632,581.8205 146.92416,575.86047 146.22362,570.00613 C 145.3886,563.97801 143.38032,558.78287 139.481,554.375 C 135.531,550.273 129.078,547.936 127.434,541.996 C 123.472,527.685 130,510.544 130,496 C 125.727,496.183 120.06,495.857 116,497.013 C 112.182,498.1 109.234,501.918 105.001,501.588 C 96.0213,500.889 94.6958,490.772 84.0039,496.303 C 77.270396,499.78655 72.817945,508.156 67.692248,515.28348 C 61.986963,523.2169 55.447568,529.61158 44,526.017 C 42.688679,525.60525 41.572809,525.01224 40.586567,524.25624 C 37.3386,530.61331 30.0662,533.491 25.3395,538.264 C 20.819,542.829 18.8187,550.758 18.189,557 C 16.8308,570.463 35.8984,575.876 40.1721,587 C 44.4562,598.151 33.9999,609.861 35.1127,621 C 35.8868,628.749 46.3626,636.962 50.2793,644 C 52.2958,647.623 53.8876,658.092 58.2245,659.388 C 63.4666,660.955 69.178095,650.58641 75.806995,652.7734 z "  />
		<path id="path2197" style="fill:#ffdd55;stroke:#000000" d="M 129.96219,496.14538 C 131.85818,485.93437 135.30525,475.86575 145.69454,470.36834 C 142.90622,462.20239 141.36846,452.57668 141.68887,444.721 C 141.68887,444.721 141.36846,452.57668 141.38225,444.8605 L 124,442.397 L 101.996,419.862 L 84,412.133 L 63.665561,411.779 C 62.435525,424.48487 47.2682,444.757 50.3179,457 C 51.7725,462.839 59.19,465.712 59.5077,471.996 C 59.858,478.923 51.1317,482.496 53.3179,490.946 C 54.291,494.707 58.4497,496.928 60.615,500.019 C 63.3162,503.874 64.3491,511.184 67.721124,515.14174 C 72.817945,508.156 77.270396,499.78655 84.0039,496.303 C 94.6958,490.772 96.0213,500.889 105.001,501.588 C 109.234,501.918 112.182,498.1 116,497.013 C 120.06,495.857 125.68919,496.32837 129.96219,496.14538 z "  />
		<path id="path2288" style="fill:#fff6d5;stroke:#000000" d="M 40.597234,524.28817 C 41.572809,525.01224 42.688679,525.60525 44,526.017 C 55.447568,529.61158 61.986963,523.2169 67.721124,515.14174 C 64.3491,511.184 63.3162,503.874 60.615,500.019 C 58.4497,496.928 54.291,494.707 53.3179,490.946 C 51.1317,482.496 59.858,478.923 59.5077,471.996 C 59.19,465.712 51.7725,462.839 50.3179,457 C 47.2682,444.757 62.435525,424.48487 63.634687,411.58506 C 54.9966,415.266 42.8741,410.96 33.87385,410.125 C 32.6471,415.914 25.5771,417.674 24.3372,423.09 C 23.0572,428.68 31.2723,433.084 26.4213,438.501 C 21.4519,444.05 9.24647,439.034 6.66204,447.076 C 4.89387,452.578 15.2477,456.355 16.0023,462.039 C 16.6986,467.285 11.8273,472.923 14.1165,477.946 C 17.0034,484.28 27.4839,489.524 29.2492,496.259 C 30.183,499.822 25.8262,502.318 26.1752,505.812 C 26.4416,508.479 29.6544,509.676 31.2369,511.47 C 34.748356,515.45138 36.331884,521.12243 40.597234,524.28817 z "  />
		<path id="path2249" style="fill:#ffe680;stroke:#000000" d="M 141.38225,444.8605 L 124,442.397 L 101.996,419.862 L 84,412.133 L 63.817875,411.59094 C 69.5877,408.845 73.4292,398.429 79,394.314 C 87.1802,388.272 103.224,392.353 112,395 C 115.71,400.626 121.855,405.475 124.977,411.09 C 126.79,414.35 126.213,418.867 130.189,420.716 C 137.03,423.897 149.282,411.452 154.917,423.13 C 158.348,430.238 141.72925,436.3135 141.38225,444.8605 z "  />
		<path id="path2241" style="fill:#ffcc00;stroke:#000000" d="M 33.87385,410.125 C 42.87295,410.835 54.9966,415.266 63.787,411.397 C 63.787,411.397 54.9966,415.266 63.787,411.397 C 69.5877,408.845 73.4292,398.429 79,394.314 C 87.1802,388.272 103.224,392.353 112,395 C 118.468,372.947 148.8,383.809 163,387.895 C 171.851,390.442 179.019,386.389 180.482,377 C 181.572,370.006 175.263,365.698 174.623,359.001 C 174.015,352.633 186.686,347.687 176.04,344.251 L 171.78487,343.03782 C 159.60075,342.68563 162.212,326.685 159.366,318 C 156.512,309.292 149.063,307.533 143.133,301.787 C 140.661,299.392 139.289,294.483 135.897,293.256 C 131.018,291.491 127.732,300.019 125.572,302.985 C 116.697,315.173 106.3945,315.0475 93.22005,317.84475 C 89.6273,324.697 79.395,328.218 74.5725,334.184 C 67.3485,343.121 76.8111,353.993 62,358.806 C 53.327,361.625 41.99,359.526 33,358.911 C 29.9286,358.7 24.3571,356.67 22.0278,359.603 C 13.6299,370.179 28.641,384.233 32.5432,392.001 C 34.8175,396.528 34.89485,405.198 33.87385,410.125 z "  />
		<path id="path2280" style="fill:#ffcc00;stroke:#000000" d="M 558.18839,414.25504 C 555.90857,416.03177 551.35878,415.96775 549,415.996 C 537.577,416.133 520.787,416.982 510,413.415 C 488.601,406.34 463.919,403.6 451.438,429.001 C 447.264,437.495 451.29,452.542 442.906,457.991 C 431.138,465.639 427.533,442.663 415.056,450.9 C 413.91102,451.65569 413.09369,452.40591 412.29725,452.98695 C 406.46263,451.67305 397.171,449.525 394.318,443.96 C 390.429,436.374 395.526,427.009 388.853,420.188 C 382.799,414.001 375.297,415.101 368,411.99 C 355.936,406.847 351.1185,398.60777 343.74575,388.75288 C 346.914,378.675 330.758,376.351 332.975,367 C 334.115,362.19 338.139,358.691 339.49,354 C 340.378,350.915 339.245,347.103 341.028,344.299 C 343.266,340.78 348.839,339.945 351.786,336.87 C 359.627,328.689 362,316.759 362,306 C 362,289.128 343.544,276.217 350.603,258.04 C 357.701,239.763 393.44958,253.49505 399.02337,235.484 C 401.47553,237.10691 404.09049,238.53268 406.471,241.147 C 410.057,245.084 411.958,250.438 417.001,252.972 C 421.202,255.084 425.973,253 429.812,256.318 C 433.387,259.409 434.727,264.337 437.684,267.946 C 442.007,273.222 448.571,276.145 452.411,282 C 455.082,286.072 453.995,290.696 455.603,295 C 457.22,299.33 461.572,301.948 463.721,306 C 469.314,316.544 459.687,340.119 470.109,347.076 C 475.809,350.882 482.127,348.353 487.961,350.603 C 493.86,352.879 494.857,360.276 500.058,363.351 C 507.524,367.765 518.649,366.585 527,369.236 C 531.7873,370.75592 540.26264,366.44687 545.19787,366.86125 C 546.42226,366.96406 547.42877,367.3576 548.107,368.203 C 558.094,380.654 541.337,382.618 535.001,387.255 C 533.1,388.645 528.317,391.641 529.346,394.585 C 530.539,398.001 537.197,397.761 540,398.04 C 545.728,398.611 558.84,404.302 559.534,410.943 C 559.69235,412.45831 559.13677,413.51594 558.18839,414.25504 z "  />
		<path id="path2270" style="fill:#ffdd55;stroke:#000000" d="M 636.19377,438.33395 C 625.51977,428.59195 619.696,430.416 607.089,429.427 C 603.653,429.157 601.565,425.704 597.996,425.398 C 593.195,424.987 588.663,427.357 584,427.871 C 574.751,428.891 563.53653,421.15653 558.12446,414.15778 C 559.13677,413.51594 559.69235,412.45831 559.534,410.943 C 558.84,404.302 545.728,398.611 540,398.04 C 537.197,397.761 530.539,398.001 529.346,394.585 C 528.317,391.641 533.1,388.645 535.001,387.255 C 541.337,382.618 558.094,380.654 548.107,368.203 C 547.42877,367.3576 546.42226,366.96406 545.16657,366.79745 L 559.791,330 L 560.607,316.137 L 573,321.687 L 613.55328,334.92874 C 611.74606,344.6443 606.77615,353.66479 608.133,364 C 608.949,370.211 614.159,370.747 616.972,375.34 C 619.442,379.372 616.531,384.777 619.603,388.656 C 623.513,393.592 630.547,394.161 634.412,400 C 641.84618,411.23063 639.52027,425.39708 636.19377,438.33395 z "  />
		<path id="path2269" style="fill:#ffe680;stroke:#000000" d="M 545.16657,366.79745 L 559.791,330 L 560.607,316.137 L 573,321.687 L 613.55328,334.92874 C 614.69089,330.54919 614.98285,325.9361 613.686,321.001 C 611.4,312.302 598.831,314.908 598.059,305.995 C 597.18,295.858 606.972,288.344 603.161,278 C 600.138,269.796 589.232,262.012 581.996,257.471 C 576.196,253.83 569.474,252.975 568.214,245 C 565.241,226.185 581.342,216.932 586.941,200.996 C 589.155,194.695 585.661,191.759 584.313,186 C 581.805,175.279 580.22,158.727 574.543,149.148 C 571.642,144.252 564.68,146.479 560,145.867 C 555.474,145.274 549.455,141.316 546.757,137.625 C 544.037,133.904 546.931,129.242 545.411,125.17 C 543.729,120.666 539.285,117.985 538.278,113 C 537.591,109.6 539.194,104.286 536.397,101.619 C 529.827,95.3547 517.454,113.507 512.604,100.956 C 510.964,96.7109 515.209,82.2781 520.059,81.4884 C 524.939,80.6938 529.37,84.3514 533,87 C 536.016,77.9035 531.32,73.983 528.589,66 C 526.154,58.8854 525.824,41.7203 514.06975,54 L 515,59 C 513.36,58.0034 511.857,56.9893 509.975,56.4892 C 492.902,51.951 504.638,73.6035 498.643,76.3572 C 495.326,77.8807 490.495,75.1747 487,75.1805 C 481.217,75.1902 478.07,79.7706 472.91,80.6064 C 467.991,81.4034 463.952,78.3829 459.015,80.8527 C 450.73004,84.997017 442.85285,90.534502 434.79991,95.769254 C 438.92311,99.122827 443.779,99.1196 447.137,103.133 C 450.411,107.045 450.322,112.354 454.094,115.981 C 457.599,119.35 462.265,120.362 466,123.344 C 473.748,129.53 481.056,139.085 486.996,147 C 491.91,153.548 491.259,160.649 495.028,166.656 C 497.322,170.312 502.627,169.723 504.977,173.344 C 506.878,176.273 506.233,180.05 509.344,182.378 C 514.241,186.042 521.362,179.929 525.996,178.603 C 529.243,177.674 546.162,182.337 548.142,185.148 C 553.112,192.205 540.727,213.332 533.946,216.972 C 530.343,218.906 523.403,216.199 520.747,219.603 C 517.312,224.005 530.572,236.256 519.945,239.288 C 515.382,240.589 511.655,234.455 506.999,234.059 C 500.354,233.493 494.249,238.68 488,237.343 C 481.76,236.008 479.73,228.986 473.96,227.662 C 468.394,226.385 462.488,229.565 457,226.821 C 450.688,223.665 445.846,211.575 438.982,210.893 C 431.8,210.181 431.269,219.593 424.981,220.772 C 410.88,223.416 403.804,213.861 392.95658,228.11184 C 394.24634,231.21262 397.13454,233.77819 399.11515,235.29694 C 401.47553,237.10691 404.09049,238.53268 406.471,241.147 C 410.057,245.084 411.958,250.438 417.001,252.972 C 421.202,255.084 425.973,253 429.812,256.318 C 433.387,259.409 434.727,264.337 437.684,267.946 C 442.007,273.222 448.571,276.145 452.411,282 C 455.082,286.072 453.995,290.696 455.603,295 C 457.22,299.33 461.572,301.948 463.721,306 C 469.314,316.544 459.687,340.119 470.109,347.076 C 475.809,350.882 482.127,348.353 487.961,350.603 C 493.86,352.879 494.857,360.276 500.058,363.351 C 507.524,367.765 518.649,366.585 527,369.236 C 531.7873,370.75592 540.23135,366.38307 545.16657,366.79745 z "  />
		<path id="path2237" style="fill:#ffe680;stroke:#000000" d="M 151.49,161.603 C 157.314,166.77 158.806,183.785 157.791,191 C 156.015,203.626 143.85,208.75 140.514,220 C 136.858,232.327 151.288,228.679 153.029,237.019 C 154.709,245.065 133.668,256.532 143.603,266.258 C 147.315,269.891 153.654,266.277 157.571,269.603 C 164.21,275.243 168.313,291.33 180.856,289.549 C 186.455,288.753 185.512,277.918 186.147,274.004 C 186.982,268.861 192.057,267.274 194.196,262.907 C 196.711,257.772 195.278,252.367 196.264,247.001 C 198.27909,236.03164 214.82873,238.11818 216.01006,225.17685 C 221.00639,229.01869 229.997,231.28 233.981,236.189 C 246.50799,251.62183 250.31501,274.51522 239.6111,291.15704 C 238.2918,293.20822 236.75204,295.16444 234.981,297 C 231.248,300.869 227.448,305.089 222,306.311 C 210.401,308.914 215.277,296.986 211.821,291.148 C 209.682,287.536 204.679,287.699 201,288.109 C 198.809,288.353 196.851,289.005 195.133,290.434 C 181.495,301.772 197.494,313.851 193.357,325.96 C 190.701,333.735 177.328,336.995 171.78487,343.03782 C 159.60075,342.68563 162.212,326.685 159.366,318 C 156.512,309.292 149.063,307.533 143.133,301.787 C 140.661,299.392 139.289,294.483 135.897,293.256 C 131.018,291.491 127.732,300.019 125.572,302.985 C 116.697,315.173 106.3945,315.0475 93.22005,317.84475 C 95.0491,313.728 93.4022,297.799 88.8519,295.742 C 84.4179,293.738 78.1569,297.374 74.3179,294.357 C 70.9778,291.733 72.0584,282.878 72.3171,279.015 C 73.0232,268.474 87.1731,274.723 92.3966,269.232 C 95.6601,265.801 93.6137,258.376 94.7639,254 C 97.6014,243.205 106.44,236.078 109.184,226 C 110.919,219.632 107.352,203.755 103.772,198.189 C 99.7796,191.983 94.3414,193.004 95.0941,184 C 95.8614,174.821 105.084,165.064 113,161.009 C 120.997,156.912 144.316,155.239 151.49,161.603 z "  />
		<path id="path2227" style="fill:#ffcc00;stroke:#000000" d="M 215.91273,225.30001 C 214.82873,238.11818 198.27909,236.03164 196.264,247.001 C 195.278,252.367 196.711,257.772 194.196,262.907 C 192.057,267.274 186.982,268.861 186.147,274.004 C 185.512,277.918 186.455,288.753 180.856,289.549 C 168.313,291.33 164.21,275.243 157.571,269.603 C 153.654,266.277 147.315,269.891 143.603,266.258 C 133.668,256.532 154.709,245.065 153.029,237.019 C 151.288,228.679 136.858,232.327 140.514,220 C 143.85,208.75 156.015,203.626 157.791,191 C 158.806,183.785 157.314,166.77 151.61802,161.39541 C 155.22603,162.49183 163.728,162.318 165.397,166.148 C 168.479,173.222 163.201,184.971 174,187.998 C 183.829,190.752 174.713,175.275 181.148,172.608 C 187.296,170.06 197.088,178.41 203.31,180 C 205.08,188.305 197.39,198.912 202.028,206.856 C 206.569,214.634 215.314,210.656 215.944,223 C 215.98565,223.81674 215.97347,224.58177 215.91273,225.30001 z "  />
		<path id="path2284" style="fill:#ffdd55;stroke:#000000" d="M 392.95658,228.11184 C 381.67958,221.63284 369.155,221.128 358,213.907 C 351.66,209.803 346.32,200.154 339,198.318 C 327.382,195.404 316.591,207.378 306,203.141 C 296.259,199.245 296.64,189.126 289.736,183.589 C 284.179,179.131 275.852,182.792 270.184,178.436 C 265.132,174.552 262.746,167.291 259.42,162.039 C 255.858,156.416 249.649,149.79 244.906,145.059 C 241.47242,141.63389 236.78021,140.10379 232.27293,138.38297 C 230.42637,144.64164 223.472,146.488 218,145.871 C 206.715,144.599 195.564,137.178 192.475,154 C 190.366,165.479 201.928,170.375 203.62,180 C 205.08,188.305 197.39,198.912 202.028,206.856 C 206.569,214.634 215.314,210.656 215.944,223 C 215.98565,223.81674 215.97347,224.58177 216.01006,225.17685 C 221.00639,229.01869 229.997,231.28 233.981,236.189 C 246.50799,251.62183 250.31501,274.51522 239.67037,291.1847 C 242.1691,299.24036 229.739,310.523 230.724,318 C 231.971,327.468 242.871,332.338 247.116,340.001 C 253.843,352.147 259.28374,374.48584 258.01189,388.14342 C 262.08705,387.741 267.981,385.081 271.941,386.608 C 282.139,390.539 274.579,414.811 277,423 C 283.452,417.455 285.49424,413.25224 295.48562,413.10862 C 298.308,399.102 313.762,392.987 326,392.09 C 330.644,391.75 341.991,394.624 343.762,388.887 C 346.914,378.675 330.758,376.351 332.975,367 C 334.115,362.19 338.139,358.691 339.49,354 C 340.378,350.915 339.245,347.103 341.028,344.299 C 343.266,340.78 348.839,339.945 351.786,336.87 C 359.627,328.689 362,316.759 362,306 C 362,289.128 343.544,276.217 350.603,258.04 C 357.701,239.763 393.44958,253.49505 399.02337,235.484 C 397.13454,233.77819 394.28976,231.10078 392.95658,228.11184 z "  />
		<path id="path2223" style="fill:#fff6d5;stroke:#000000" d="M 393,228 C 403.804,213.861 410.88,223.416 424.981,220.772 C 431.269,219.593 431.8,210.181 438.982,210.893 C 445.846,211.575 450.688,223.665 457,226.821 C 462.488,229.565 468.394,226.385 473.96,227.662 C 479.73,228.986 481.76,236.008 488,237.343 C 494.249,238.68 500.354,233.493 506.999,234.059 C 511.655,234.455 515.382,240.589 519.945,239.288 C 530.572,236.256 517.312,224.005 520.747,219.603 C 523.403,216.199 530.343,218.906 533.946,216.972 C 540.727,213.332 553.112,192.205 548.142,185.148 C 546.162,182.337 529.243,177.674 525.996,178.603 C 521.362,179.929 514.241,186.042 509.344,182.378 C 506.233,180.05 506.878,176.273 504.977,173.344 C 502.627,169.723 497.322,170.312 495.028,166.656 C 491.259,160.649 491.91,153.548 486.996,147 C 481.056,139.085 473.748,129.53 466,123.344 C 462.265,120.362 457.599,119.35 454.094,115.981 C 450.322,112.354 450.411,107.045 447.137,103.133 C 443.779,99.1196 438.92311,99.122827 434.79991,95.769254 C 431.87489,97.360603 428.94469,99.099814 425.961,100.683 C 418.877,104.441 410.102,103.978 403.001,108.768 C 395.013,114.155 391.624,124.776 383.816,130.258 C 375.336,136.211 362.496,128.525 354,126.843 C 350.142,126.079 345.902,128.039 342.318,125.685 C 337.758,122.69 340.943,116.811 343.634,113.87 C 348.074,109.018 370.449,95.4122 360.997,85.7083 C 358.624,83.272 347.83,88.6365 344,88.3904 C 333.947,87.7446 323.688,78.2488 314,78.2955 C 309.932,78.3152 306.533,82.3647 303,84 C 301.826,80.8669 301.642,73.8107 297.852,72.7369 C 294.534,71.7969 288.62,77.9489 286.122,74.3781 C 282.232,68.8173 294.855,59.749 293.54,53 C 291.048,40.2086 274.541,34.0116 262,32.1473 C 256.563,31.3391 250.342,33.2602 245.09,31.4159 C 235.67,28.1081 227.057,22.0856 217.961,18.743 C 214.874,17.6087 210.858,18.4348 209.028,21.3441 C 197.005,40.4575 227.769,51.0222 225.553,66.9992 C 223.951,78.553 204.229,73.2598 204.296,85.9413 C 204.335,93.3622 216.671,87.912 220.378,91.0278 C 223.415,93.58 219.155,100.282 220.604,103.941 C 222.164,107.881 227.138,107.58 228.917,111.147 C 232.884,119.098 216.789,121.67 220.712,128.986 C 223.39112,133.98294 227.7382,136.28104 232.27549,138.1993 C 236.78021,140.10379 241.47242,141.63389 244.906,145.059 C 249.649,149.79 255.858,156.416 259.42,162.039 C 262.746,167.291 265.132,174.552 270.184,178.436 C 275.852,182.792 284.179,179.131 289.736,183.589 C 296.64,189.126 296.259,199.245 306,203.141 C 316.591,207.378 327.382,195.404 339,198.318 C 346.32,200.154 351.66,209.803 358,213.907 C 369.155,221.128 381.723,221.521 393,228 z "  />
	</g>
	<g id="layer2">
		<g id="g35">
      <a href="/aachen">
			<text style="font-size:20px;font-style:normal;font-weight:normal;fill:#000000;fill-opacity:1;stroke:none;stroke-width:1px;stroke-linecap:butt;stroke-linejoin:miter;stroke-opacity:1;font-family:Gentium" x="-18.384779" y="477.77756" id="text2189">
				<tspan id="tspan2191" x="-18.384779" y="477.77756">
					Aachen
				</tspan>
			</text>
         </a>
         <a href="/berlin">
			<text style="font-size:20px;font-style:normal;font-weight:normal;fill:#000000;fill-opacity:1;stroke:none;stroke-width:1px;stroke-linecap:butt;stroke-linejoin:miter;stroke-opacity:1;font-family:Gentium" x="499.21738" y="279.78766" id="text2193">
				<tspan id="tspan2195" x="499.21738" y="279.78766">
					Berlin
				</tspan>
			</text>
         </a>
         <a href="/dresden-meissen">
			<text style="font-size:20px;font-style:normal;font-variant:normal;font-weight:normal;font-stretch:normal;text-align:start;line-height:100%;writing-mode:lr-tb;text-anchor:start;fill:#000000;fill-opacity:1;stroke:none;stroke-width:1px;stroke-linecap:butt;stroke-linejoin:miter;stroke-opacity:1;font-family:Gentium" x="468.10471" y="459.39279" id="text2197">
				<tspan id="tspan2199" x="468.10471" y="459.39279">
					Dresden-
				</tspan>
				<tspan x="468.10471" y="479.39279" id="tspan2313">
					Meißen
				</tspan>
			</text>
         </a>
         <a href="/erfurt">
			<text style="font-size:20px;font-style:normal;font-weight:normal;fill:#000000;fill-opacity:1;stroke:none;stroke-width:1px;stroke-linecap:butt;stroke-linejoin:miter;stroke-opacity:1;font-family:Gentium" x="325.26913" y="486.26285" id="text2201">
				<tspan id="tspan2203" x="325.26913" y="486.26285">
					Erfurt
				</tspan>
			</text>
         </a>
         <a href="/essen">
			<text style="font-size:18px;font-style:normal;font-variant:normal;font-weight:normal;font-stretch:normal;text-align:start;line-height:125%;writing-mode:lr-tb;text-anchor:start;fill:#000000;fill-opacity:1;stroke:none;stroke-width:1px;stroke-linecap:butt;stroke-linejoin:miter;stroke-opacity:1;font-family:Gentium" x="77.781746" y="408.48108" id="text2205">
				<tspan id="tspan2207" x="77.781746" y="408.48108">
					Essen
				</tspan>
			</text>
         </a>
         <a href="/freiburg">
			<text style="font-size:20px;font-style:normal;font-weight:normal;fill:#000000;fill-opacity:1;stroke:none;stroke-width:1px;stroke-linecap:butt;stroke-linejoin:miter;stroke-opacity:1;font-family:Gentium" x="123.03658" y="807.28937" id="text2209">
				<tspan id="tspan2211" x="123.03658" y="807.28937">
					Freiburg
				</tspan>
			</text>
         </a>
         <a href="/fulda">
			<text style="font-size:20px;font-style:normal;font-weight:normal;fill:#000000;fill-opacity:1;stroke:none;stroke-width:1px;stroke-linecap:butt;stroke-linejoin:miter;stroke-opacity:1;font-family:Gentium" x="222.03152" y="473.53494" id="text2213">
				<tspan id="tspan2215" x="222.03152" y="473.53494">
					Fulda
				</tspan>
			</text>
         </a>
         <a href="/goerlitz">
			<text style="font-size:20px;font-style:normal;font-weight:normal;fill:#000000;fill-opacity:1;stroke:none;stroke-width:1px;stroke-linecap:butt;stroke-linejoin:miter;stroke-opacity:1;font-family:Gentium" x="555.78595" y="391.51053" id="text2217">
				<tspan id="tspan2219" x="555.78595" y="391.51053">
					Görlitz
				</tspan>
			</text>
         </a>
         <a href="/hamburg">
			<text style="font-size:20px;font-style:normal;font-weight:normal;fill:#000000;fill-opacity:1;stroke:none;stroke-width:1px;stroke-linecap:butt;stroke-linejoin:miter;stroke-opacity:1;font-family:Gentium" x="329.51175" y="165.23639" id="text2221">
				<tspan id="tspan2223" x="329.51175" y="165.23639">
					Hamburg
				</tspan>
			</text>
         </a>
         <a href="/hildesheim">
			<text style="font-size:20px;font-style:normal;font-weight:normal;fill:#000000;fill-opacity:1;stroke:none;stroke-width:1px;stroke-linecap:butt;stroke-linejoin:miter;stroke-opacity:1;font-family:Gentium" x="253.14423" y="299.58664" id="text2225">
				<tspan id="tspan2227" x="253.14423" y="299.58664">
					Hildesheim
				</tspan>
			</text>
         </a>
         <a href="/koeln">
			<text style="font-size:20px;font-style:normal;font-weight:normal;fill:#000000;fill-opacity:1;stroke:none;stroke-width:1px;stroke-linecap:butt;stroke-linejoin:miter;stroke-opacity:1;font-family:Gentium" x="83.438606" y="470.70651" id="text2229">
				<tspan id="tspan2231" x="83.438606" y="470.70651">
					Köln
				</tspan>
			</text>
         </a>
         <a href="/limburg">
			<text style="font-size:18px;font-style:normal;font-variant:normal;font-weight:normal;font-stretch:normal;text-align:start;line-height:125%;writing-mode:lr-tb;text-anchor:start;fill:#000000;fill-opacity:1;stroke:none;stroke-width:1px;stroke-linecap:butt;stroke-linejoin:miter;stroke-opacity:1;font-family:Gentium" x="131.52187" y="525.86084" id="text2233">
				<tspan id="tspan2235" x="131.52187" y="525.86084">
					Limburg
				</tspan>
			</text>
         </a>
         <a href="/magdeburg">
			<text style="font-size:20px;font-style:normal;font-weight:normal;fill:#000000;fill-opacity:1;stroke:none;stroke-width:1px;stroke-linecap:butt;stroke-linejoin:miter;stroke-opacity:1;font-family:Gentium" x="374.7666" y="370.2973" id="text2237">
				<tspan id="tspan2239" x="374.7666" y="370.2973">
					Magdeburg
				</tspan>
			</text>
         </a>
         <a href="/muenster">
			<text style="font-size:20px;font-style:normal;font-weight:normal;fill:#000000;fill-opacity:1;stroke:none;stroke-width:1px;stroke-linecap:butt;stroke-linejoin:miter;stroke-opacity:1;font-family:Gentium" x="142.83559" y="227.46178" id="text2241">
				<tspan id="tspan2243" x="142.83559" y="227.46178">
					Münster
				</tspan>
			</text>
         </a>
         <a href="/osnabrueck">
			<text style="font-size:20px;font-style:normal;font-weight:normal;fill:#000000;fill-opacity:1;stroke:none;stroke-width:1px;stroke-linecap:butt;stroke-linejoin:miter;stroke-opacity:1;font-family:Gentium" x="45.254837" y="282.61609" id="text2245">
				<tspan id="tspan2247" x="45.254837" y="282.61609">
					Osnabrück
				</tspan>
			</text>
         </a>
         <a href="/paserborn">
			<text style="font-size:20px;font-style:normal;font-weight:normal;fill:#000000;fill-opacity:1;stroke:none;stroke-width:1px;stroke-linecap:butt;stroke-linejoin:miter;stroke-opacity:1;font-family:Gentium" x="138.59294" y="408.48111" id="text2249">
				<tspan id="tspan2251" x="138.59294" y="408.48111">
					Paderborn
				</tspan>
			</text>
         </a>
         <a href="/rottenburg-stuttgart">
			<text style="font-size:20px;font-style:normal;font-variant:normal;font-weight:normal;font-stretch:normal;text-align:start;line-height:100%;writing-mode:lr-tb;text-anchor:start;fill:#000000;fill-opacity:1;stroke:none;stroke-width:1px;stroke-linecap:butt;stroke-linejoin:miter;stroke-opacity:1;font-family:Gentium" x="212.13205" y="698.3949" id="text2253">
				<tspan id="tspan2255" x="212.13205" y="698.3949">
					Rottenburg-
				</tspan>
				<tspan x="212.13205" y="718.3949" id="tspan2275">
					Stuttgart
				</tspan>
			</text>
         </a>
         <a href="/trier">
			<text style="font-size:20px;font-style:normal;font-weight:normal;fill:#000000;fill-opacity:1;stroke:none;stroke-width:1px;stroke-linecap:butt;stroke-linejoin:miter;stroke-opacity:1;font-family:Gentium" x="66.46804" y="585.25775" id="text2257">
				<tspan id="tspan2259" x="66.46804" y="585.25775">
					Trier
				</tspan>
			</text>
         </a>
         <a href="/speyer">
			<text style="font-size:20px;font-style:normal;font-weight:normal;fill:#000000;fill-opacity:1;stroke:none;stroke-width:1px;stroke-linecap:butt;stroke-linejoin:miter;stroke-opacity:1;font-family:Gentium" x="114.55128" y="638.99792" id="text2261">
				<tspan id="tspan2263" x="114.55128" y="638.99792">
					Speyer
				</tspan>
			</text>
         </a>
         <a href="/mainz">
			<use x="0" y="0" xlink:href="#text2241" id="use2269" transform="translate(-60.811183,135.7645)" width="700" height="878" />
			<use x="0" y="0" xlink:href="#text2271" id="use2277" transform="translate(-43.840621,76.367532)" width="700" height="878" />
			<text style="font-size:18px;font-style:normal;font-variant:normal;font-weight:normal;font-stretch:normal;text-align:start;line-height:125%;writing-mode:lr-tb;text-anchor:start;fill:#000000;fill-opacity:1;stroke:none;stroke-width:1px;stroke-linecap:butt;stroke-linejoin:miter;stroke-opacity:1;font-family:Gentium" x="203.64674" y="517.37555" id="text2271">
				<tspan id="tspan2273" x="203.64674" y="517.37555">
					Mainz
				</tspan>
			</text>
         </a>
         <a href="/wuerzburg">
			
			<text style="font-size:20px;font-style:normal;font-weight:normal;fill:#000000;fill-opacity:1;stroke:none;stroke-width:1px;stroke-linecap:butt;stroke-linejoin:miter;stroke-opacity:1;font-family:Gentium" x="241.83052" y="576.77252" id="text2279">
				<tspan id="tspan2281" x="241.83052" y="576.77252">
					Würzburg
				</tspan>
			</text>
         </a>
         <a href="/bamberg">
			<text style="font-size:20px;font-style:normal;font-weight:normal;fill:#000000;fill-opacity:1;stroke:none;stroke-width:1px;stroke-linecap:butt;stroke-linejoin:miter;stroke-opacity:1;font-family:Gentium" x="332.34018" y="610.71362" id="text2283">
				<tspan id="tspan2285" x="332.34018" y="610.71362">
					Bamberg
				</tspan>
			</text>
         </a>
         <a href="/eichstaett">
			<text style="font-size:18px;font-style:normal;font-variant:normal;font-weight:normal;font-stretch:normal;text-align:start;line-height:125%;writing-mode:lr-tb;text-anchor:start;fill:#000000;fill-opacity:1;stroke:none;stroke-width:1px;stroke-linecap:butt;stroke-linejoin:miter;stroke-opacity:1;font-family:Gentium" x="345.06812" y="672.93903" id="text2287">
				<tspan id="tspan2289" x="345.06812" y="672.93903">
					Eichstätt
				</tspan>
			</text>
         </a>
         <a href="/regensburg">
			<text style="font-size:20px;font-style:normal;font-weight:normal;fill:#000000;fill-opacity:1;stroke:none;stroke-width:1px;stroke-linecap:butt;stroke-linejoin:miter;stroke-opacity:1;font-family:Gentium" x="418.60721" y="684.25275" id="text2291">
				<tspan id="tspan2293" x="418.60721" y="684.25275">
					Regensburg
				</tspan>
			</text>
         </a>
         <a href="/passau">
			<text style="font-size:20px;font-style:normal;font-weight:normal;fill:#000000;fill-opacity:1;stroke:none;stroke-width:1px;stroke-linecap:butt;stroke-linejoin:miter;stroke-opacity:1;font-family:Gentium" x="514.77374" y="711.1228" id="text2295">
				<tspan id="tspan2297" x="514.77374" y="711.1228">
					Passau
				</tspan>
			</text>
         </a>
         <a href="/muenchen-freising">
			<text style="font-size:20px;font-style:normal;font-variant:normal;font-weight:normal;font-stretch:normal;text-align:start;line-height:100%;writing-mode:lr-tb;text-anchor:start;fill:#000000;fill-opacity:1;stroke:none;stroke-width:1px;stroke-linecap:butt;stroke-linejoin:miter;stroke-opacity:1;font-family:Gentium" x="400.22244" y="786.07611" id="text2299">
				<tspan x="400.22244" y="786.07611" id="tspan2303">
					München
				</tspan>
				<tspan x="400.22244" y="806.07611" id="tspan2307">
					und Freising
				</tspan>
			</text>
         </a>
         <a href="/augsburg">
			<text style="font-size:20px;font-style:normal;font-weight:normal;fill:#000000;fill-opacity:1;stroke:none;stroke-width:1px;stroke-linecap:butt;stroke-linejoin:miter;stroke-opacity:1;font-family:Gentium" x="313.95541" y="740.82129" id="text2309">
				<tspan id="tspan2311" x="313.95541" y="740.82129">
					Augsburg
				</tspan>
			</text>
         </a>
		</g>
	</g>
</svg>
