<svg width="50" height="50" xmlns="http://www.w3.org/2000/svg"><g fill="none" fill-rule="evenodd"><path fill="#52B25E" fill-rule="nonzero" d="M0 0h50v50H0z"/><g stroke-linejoin="round" stroke="#FFF"><path stroke-linecap="round" d="M13.5 30.25H26"/><path d="M14.5 15.5h23.25"/><path d="M25.75 23H12m13.111 14.5c-7.446-.398-13.361-6.565-13.361-14.115 0-7.808 6.324-14.135 14.125-14.135 7.597 0 13.802 5.997 14.125 13.52M25.12 9.5c-7.246 7.998-7.116 18.406.13 28.25M27 9.5c3.73 4.018 5.55 8.642 5.499 13.5" stroke-linecap="round"/></g><path fill="#52B25E" fill-rule="nonzero" d="M26.5 16h14v10.75h-14z"/><path d="M25.75 23.5H43v17.25H25.75z"/><g stroke-linecap="round" stroke-linejoin="round" fill="#52B25E" fill-rule="nonzero" stroke="#494949"><path d="M12.25 37.328c15.669 5.01 9.89 5.06 27.75-3.502-1.552-1.486-2.778-1.839-4.381-1.4l-6.477 2.06-16.892.17"/><path d="M12.25 35.375V29.75h4.36c3.42 0 5.815 2.063 6.542 2.75h4.36c2.317 0 2.317 2.75 0 2.75h-7.994M37.5 20.808h-3.083V17.75h-3.084v3.058H28.25v3.058h3.083V31h3.084v-7.135H37.5v-3.057z"/><path d="M6.75 39.75h5.75V28.5H6.75z"/></g></g></svg>
