<?xml version="1.0" encoding="UTF-8" standalone="no"?>
<svg xmlns="http://www.w3.org/2000/svg" viewbox="0 0 887 1208" id="svg2" version="1.0">
	<metadata id="metadata9">
	</metadata>
	<defs id="defs7">
		<marker orient="auto" refY="0.0" refX="0.0" id="Arrow1Mend" style="overflow:visible;">
			<path id="path3339" d="M 0.0,0.0 L 5.0,-5.0 L -12.5,0.0 L 5.0,5.0 L 0.0,0.0 z " style="fill-rule:evenodd;stroke:#000000;stroke-width:1.0pt;marker-start:none;" transform="scale(0.4) rotate(180) translate(10,0)" />
		</marker>
		<marker orient="auto" refY="0.0" refX="0.0" id="Arrow2Mend" style="overflow:visible;">
			<path id="path3357" style="font-size:12.0;fill-rule:evenodd;stroke-width:0.62500000;stroke-linejoin:round;" d="M 8.7185878,4.0337352 L -2.2072895,0.016013256 L 8.7185884,-4.0017078 C 6.9730900,-1.6296469 6.9831476,1.6157441 8.7185878,4.0337352 z " transform="scale(0.6) rotate(180) translate(0,0)" />
		</marker>
	</defs>
	<g id="layer1" style="display:inline" transform="translate(-985.5,-104.5)">
		<path id="path2649" style="fill:#ffcc00;fill-opacity:1;stroke:#000000" d="M 1291,555 L 1291,555 C 1284.21,555.221 1283.28,558.757 1280,564 C 1260.21,564.013 1257.4,575.193 1255,593 L 1270.21,609.914 L 1284,614.5 C 1286.16,605.639 1291.11,603.244 1299,602 C 1304.9806,608.52499 1314.4533,607.36147 1323.2633,606.40628 L 1318.8836,590.60317 L 1318.9418,590.80158 L 1316,586 L 1307,583 L 1308,573 L 1305,565 L 1304,564 C 1297.21,563.684 1294.24,560.799 1291,555" />
		<path id="path2321" style="fill:#fff6d5;fill-opacity:1;stroke:#000000" d="M 1258.6408,718.10209 C 1254.8508,723.55409 1259.45,727.424 1257.9,733 C 1256.01,739.826 1248.79,744.773 1248.17,752 C 1247.21,763.252 1253.26,768.462 1243,777 L 1245.611,784.18014 L 1251,799 L 1259,785 L 1266,783 C 1271.3,785.233 1274.96,784.643 1280,782 L 1280,775 L 1301,762 L 1305,767 L 1312,765 L 1315,769 L 1319,769 L 1322,775 L 1343,776 C 1346.97,782.804 1348,788.217 1348,796 C 1341.73,798.06 1338.19,795.373 1333,792 C 1329.63,803.39 1332.96,825.607 1321,832 L 1314,823 C 1307.52,832.833 1308.89,849.703 1296.96,855.972 C 1286.85,861.284 1280.53,850.526 1272,850.632 C 1266.75,850.697 1262.63,858.847 1259,862 L 1259,869 L 1273.96,873.175 L 1283.274,880.31203 C 1283.2691,882.2811 1283.9842,884.44734 1286,887 C 1284.46,895.317 1283.86,905.867 1286.7,914 C 1288.79,919.985 1294.73,924.146 1294.68,931 C 1294.6,942.192 1284.11,946.508 1292,958 L 1293,965 L 1275,972 C 1274.29,978.361 1268.85,985.291 1262,983 L 1265,980 L 1265,974 L 1270,968 L 1253,963 L 1250,951 L 1244,951 C 1242.01,955.155 1242.23,957.79 1244,962 L 1239,965 L 1225.1379,954.19588 C 1219.3158,953.28577 1211.65,953.746 1206,952.462 C 1197.49,950.53 1190.33,939.408 1187,932 L 1179,934 L 1169,924 L 1169,920 C 1186.07,891.905 1153.96,872.623 1145,849 L 1149,846 L 1145,836 L 1153,832 L 1151,818 L 1145,816 L 1154.77,804.996 L 1153.94,794 L 1161,777 L 1172,777 L 1176,784 L 1180,779 C 1184.66,781.612 1188.931,783.56377 1193.8955,780.99338 L 1204,778 C 1198.87,767.33 1209.16,761.833 1216,755 L 1221,758 C 1228.43,752.659 1233.24,746.634 1236.53,738 C 1240.88,726.596 1241.52,704.719 1259,718" />
		<path id="path2726" style="fill:#ffcc00;fill-opacity:1;stroke:#000000" d="M 1598,845 L 1577,839 L 1578,835 L 1570,829 L 1564,832 C 1564,824.552 1565.09,820.373 1569,814 L 1565,810 L 1578,800 L 1581,807 C 1585.57,805.557 1585.67,802.17 1587,798 L 1593,803 C 1597.07,796.151 1601.35,794.782 1608,791 L 1610,784 L 1601,782 C 1603.52,773.461 1607.08,762.117 1617,762 L 1618,761 L 1618,757 L 1632,753 L 1637,756 L 1641,748 L 1627,737 L 1626,725 L 1616,731 L 1613,721.5 L 1603,724.93212 L 1598,722 L 1600,703 L 1592,696 L 1597,690 L 1594,684 L 1594,683 L 1615,669 L 1634,678 C 1636.02,675.008 1637.92,671.131 1641.18,669.318 C 1654.8,661.755 1665.21,676.58 1678,668 L 1692,677 C 1704.72,673.33 1711.89,667.009 1726,667 C 1729.2225,673.98887 1734.7903,676.49506 1741.0527,676.97762 C 1747.9055,677.4873 1755.5843,675.59809 1762,674.464 C 1776.42,671.916 1790.6,678.633 1805,678.985 C 1811.22,679.138 1820.53,677.568 1825.85,681.6 C 1829.59,684.428 1830.36,690.661 1831,695 L 1832,696 C 1836.35,697.29 1837.36,699.989 1839,704 L 1843,702 C 1848.13,711.195 1855.91,712.289 1864,718 L 1854,754 C 1848.51,757.504 1839.68,756.491 1838,748.995 C 1837.09,744.939 1839.57,741.999 1838,738 L 1833,741 L 1831,732 C 1822.08,726.851 1810.17,725.001 1800,725 L 1799,726 L 1803,738 L 1810,739 C 1807.03,746.433 1800.27,745.904 1794,749.278 C 1789.46,751.722 1787.04,756.366 1782.96,759.351 C 1776.94,763.755 1770.11,764 1763,764 L 1762,765 L 1762,773 L 1761,774 C 1748.71,774.254 1734.99,774.113 1726,783 C 1726.84,787.842 1726.19,790.218 1723,794 L 1715,790 C 1704.97,795.86 1700.53,801.082 1695,811 C 1679.49,806.417 1677.62,817.559 1671,828 L 1663,821 L 1649,826.974 L 1633,829.854 L 1614.23,848 L 1607,865 L 1599,845 L 1598,845 z " />
		<path id="path2345" style="fill:#ffe680;fill-opacity:1;stroke:#000000" d="M 1320.6808,295.1093 C 1327.8809,300.5693 1329.78,309.011 1334.7,315.96 C 1336.97,319.16 1340.8,320.863 1342.86,324.184 C 1349.46,334.833 1348.94,342.187 1364,341 C 1366.25,345.081 1366.5,347.593 1365,352 L 1371,360 L 1377,358 L 1380,365 L 1396,360 L 1401,367 L 1421,364 L 1438.9325,372.93254 C 1449.8651,373.09208 1456.29,377.287 1464,385 C 1470.71,383.592 1473.42,381.32 1476,375 L 1495,400 L 1496,401 L 1493,404 L 1506,413 C 1508.98,420.495 1514.16,419.77 1521,418 L 1531,428 L 1526,432 C 1524.84,458.534 1492.18,441.816 1478,448 L 1478,452 L 1457,458 L 1458,468 C 1470.44,477.233 1473.91,493.373 1480,507 L 1476.6082,509.67782 C 1474.4213,504.87072 1471,501.385 1466,500 C 1460.79,504.568 1457.59,508.137 1456,515 C 1460.94,515.436 1461.84,517.167 1462,522 L 1474,541 L 1467.5,541 L 1450,526 L 1427,535 L 1424,529 L 1417,527 C 1413.03,528.15 1411.63,529.939 1411,534 L 1412,535 L 1419,536 L 1413,546 L 1417,550 L 1402,558 L 1402,577 C 1395.46,575.525 1397,584.598 1397,589 L 1379,598.577 L 1363,589 L 1362,597 L 1370,607 L 1380,609 L 1381,614 L 1396,611 L 1403,623 L 1408,619 L 1405,613 L 1409,601 L 1438.9093,610.94152 L 1443.2142,618.93622 L 1435.8591,639.05104 L 1435,643 L 1423.04,650.329 L 1406,667.66 L 1379,682 L 1375,677 L 1368,678 L 1364,675 L 1358,681 C 1359.9,685.435 1362.18,688.344 1360,693 C 1352.33,691.006 1343.78,688.788 1342,680 C 1355.02,672.672 1345.12,658.848 1352,647 C 1346.95,641.141 1336.5621,639.032 1329.0511,638 C 1318.59,633.209 1328.35,619.607 1333,614 L 1332,607 L 1331,606 C 1328.5601,605.98647 1325.9418,606.22463 1323.2633,606.40628 L 1318.9418,590.80158 C 1322,584.394 1318.9,578.511 1315,573 L 1308,573 L 1305,565 L 1304,564 C 1297.21,563.684 1294.24,560.799 1291,555 L 1296,548 L 1296,548 L 1303,552 C 1304.01,545.227 1294.35,538.351 1306,535 L 1307,540 C 1323.79,547.927 1314.47,528.254 1314,522 L 1331,516 L 1326,504 L 1304,522 L 1303,509 C 1294.28,504.557 1286.48,514.438 1282,521 L 1266,521 L 1264,503 L 1263,502 C 1252.47,502.001 1245.73,502.623 1240,512 L 1231,507 L 1229,500 L 1229,500 C 1233.57,493.377 1227.08,486.284 1226,479 C 1230.2,474.808 1238.93,470.907 1241.57,465.892 C 1247.89,453.844 1238.53,433.253 1256,427.564 C 1258.82,426.646 1262.08,427 1265,427 L 1267,430 L 1272,430 L 1275.0711,424.75843 L 1287,432 L 1293,429 C 1292.94,421.994 1289.88,416.269 1294,410 C 1285.97,400.914 1276.23,403.951 1266,399 L 1268,389 L 1261,386 L 1250.9954,393.93818 L 1249.28,392 L 1249,367 L 1257,364 L 1258,350 L 1254.0185,341.94974 C 1253.97,333.007 1249.8,325.237 1251.21,316 C 1252.02,310.726 1255.4,305.71 1257.75,301 C 1260.41,295.687 1262.25,291.312 1268,289 C 1282.92,305.136 1301.4608,295.1093 1320.6808,295.1093 z " />
		<path id="path2539" style="fill:#ffcc00;fill-opacity:1;stroke:#000000" d="M 1229,500 C 1233.57,493.377 1227.08,486.284 1226,479 C 1230.2,474.808 1238.93,470.907 1241.57,465.892 C 1247.89,453.844 1238.53,433.253 1256,427.564 C 1258.82,426.646 1262.08,427 1265,427 L 1267,430 L 1272,430 L 1275.0711,424.75843 L 1269.27,420.811 L 1258.7,403.089 L 1250.9908,394.01393 L 1249.28,392 L 1249,367 L 1257,364 L 1258,350 L 1254.0185,341.94974 C 1245.76,341.326 1240.76,337.71 1235,332 L 1234,332 C 1230.26,336.114 1228.17,339.371 1228,345 L 1233,349 L 1228,364 L 1221,363 L 1217,357 L 1213,357 L 1211,355 L 1211,348 L 1212,347 L 1217,347 L 1218,346 C 1217.89,341.246 1216.64,337.329 1214.69,333 C 1212.52,328.153 1210.78,322.079 1206.79,318.39 C 1202.317,314.26552 1195.6732,313.77628 1188.6793,314.66745 L 1189,345 L 1201,344 C 1203.81,353.773 1196.1,358.031 1192.4,366 C 1190.46,370.19 1190.37,375.385 1186.77,378.683 C 1184.16,381.081 1180.05,380.716 1177.74,383.434 C 1174.95,386.725 1175.7,392.974 1174,397 L 1170,395 L 1165,413 L 1182,437 L 1172,451 C 1173.25,459.514 1173.37,462.468 1167,469 L 1167,470 C 1177.77,479.112 1204.98,465.697 1203.96,490 C 1203.81,493.438 1202.76,496.67 1202,500 C 1213.08,503.285 1218.37,504.582 1229,500 z M 1200,303 L 1196,306 L 1195,305 L 1196,302 L 1200,303 z " />
		<path id="path2708" style="fill:#fff6d5;fill-opacity:1;stroke:#000000" d="M 1864,718 L 1872,689 L 1862.65,672 L 1856.25,655.13 L 1839,646 L 1845,632 L 1834.31,619.942 L 1825,600 L 1833.0979,590.89684 C 1837.1758,588.50669 1833.92,582.984 1834.22,579 C 1835.08,567.796 1836.38,565.108 1828,556 L 1827,544 L 1828.34,538.077 L 1819.7,529.907 L 1812,509 L 1820,501 L 1819,485 L 1805.46,474.957 L 1793.81,459.559 L 1773,448 L 1773,429 L 1791,413 C 1790.417,408.82177 1790.6165,404.47304 1791.0822,400.02272 L 1771,403 C 1767.58,400.069 1766.16,397.574 1766.02,393 C 1765.8,386.266 1771.26,379.798 1770.47,374 C 1768.65,360.551 1752.42,352.996 1745,366 L 1719.9579,360.00723 L 1714,363 C 1713.1,374.368 1709.94,381.22 1699,386 L 1691,383 L 1689,385 L 1688,393 L 1683,389 L 1682,389 L 1677,393 L 1683,398 L 1681,403 L 1668,407 L 1659,396 L 1651,399 C 1640.34,390.783 1626.01,390.821 1614,386.398 C 1607.11,383.861 1605.09,379.055 1597,381 C 1590.88,376.043 1585.78,375.005 1578,375 C 1572.18,384.452 1557.7,392.585 1547,396 C 1538.12,387.62 1514.7,408.255 1506,413 C 1508.98,420.495 1514.16,419.77 1521,418 L 1531,428 L 1540,426 C 1547.53,438.599 1563.97,446.387 1577,452 C 1577,460.196 1575.78,466.579 1580,474 L 1586,474 L 1595,484 C 1587.88,490.887 1588.87,496.822 1592,505 L 1603,506 C 1609.57,516.581 1604.91,525.696 1604.35,537 C 1603.82,547.669 1608.83,553.459 1600,563 C 1608.25,577.325 1619.32,580.324 1633.948,584.95995 L 1642,582 L 1643,583 L 1644.046,585.68991 L 1659,578 C 1662.12,586.105 1667.99,599.089 1677.09,602.168 C 1681.42,603.634 1688.35,602 1693,602 L 1696,607 L 1719,606 C 1726.82,620.628 1722.74,631.354 1708,637 C 1713.45,657.314 1738.96,651.196 1755,657 L 1741.5,673 L 1741,674 L 1741.0351,676.98508 C 1747.9055,677.4873 1755.5843,675.59809 1762,674.464 C 1776.42,671.916 1790.6,678.633 1805,678.985 C 1811.22,679.138 1820.53,677.568 1825.85,681.6 C 1829.59,684.428 1830.36,690.661 1831,695 L 1832,696 C 1836.35,697.29 1837.36,699.989 1839,704 L 1843,702 C 1848.13,711.195 1855.91,712.289 1864,718 z " />
		<path id="path2417" style="fill:#ffe680;fill-opacity:1;stroke:#000000" d="M 1736,246 L 1773,276 L 1767,287 L 1759,286 L 1750,293 L 1745,288 L 1749,272 L 1754,276 C 1756.21,269.191 1751.98,263.139 1746,260 L 1742,266 L 1736,261 L 1736,246 z M 1661.4711,186.29697 L 1668.5,172.35479 C 1669.437,178.78279 1665.169,187.02879 1660.5,191.35479 L 1661.4711,186.29697 z M 1695.5,166.35479 C 1694.754,168.27679 1693.567,170.31579 1693.219,172.35979 C 1690.983,185.48179 1710.996,179.34179 1717.5,185.35479 L 1712.5,205.35479 C 1719.267,208.37379 1726.242,211.19979 1727.5,219.35479 L 1726.5,220.35479 L 1720.5,221.35479 L 1722.5,230.35479 C 1716.317,220.25179 1714.532,217.40479 1702.5,218.35479 L 1695.5,234.35479 C 1686.652,231.52579 1665.792,226.50079 1672.5,213.35479 L 1680.5,213.35479 L 1675.5,201.35479 L 1663.5,197.35479 L 1671.5,183.35479 C 1677.976,187.48279 1681.4625,190.99973 1687.7733,185.76149 L 1695.5,189.35479 L 1700.5,197.35479 L 1700.5,186.35479 L 1688.8778,184.43035 L 1676.5,179.35479 C 1679.017,170.15679 1685.404,163.37879 1695.5,166.35479 M 1644.5,204.35479 L 1651.1541,203.23936 C 1639.2365,198.2565 1624.0128,201.68812 1613.7308,200.43172 L 1608.5768,209.20093 C 1610.307,210.13871 1611.8184,210.67207 1613.1339,211.00194 C 1619.4302,212.58083 1621.239,209.49807 1629.5,206.91479 C 1634.402,205.38179 1639.6789,206.14086 1644.6539,204.27786 M 1791.0822,400.02272 L 1771,403 C 1767.58,400.069 1766.16,397.574 1766.02,393 C 1765.8,386.266 1771.26,379.798 1770.47,374 C 1768.65,360.551 1752.42,352.996 1745,366 L 1719.9579,360.00723 C 1722.83,349.651 1728.34,342.176 1735,334 C 1731.61,326.594 1737.82,321.843 1740,315 L 1739,314 C 1728.64,316.494 1718.85,318.922 1710,312 L 1703,313 L 1683,334 L 1673,329 C 1674.34,321.787 1675.85,316.083 1671,310 L 1652,312 L 1651,311 L 1656.18,293 L 1653,278 L 1637.03,264.985 L 1632.66,253.039 L 1609.0738,234.8606 C 1611.01,226.32 1620.15,213.771 1630,212.889 C 1635.4,212.405 1640.25,216.138 1646,214.682 C 1651.63,213.256 1655.15,203.399 1661.89,207.032 C 1667.32,209.958 1667.96,218.862 1670.13,223.999 C 1672.79,230.282 1679.41,234.285 1686,235 L 1704,254 C 1712.81,243.984 1726.16,246.512 1734,255 L 1730,266 C 1739.18,275.184 1743.22,279.322 1739,292 C 1747.3,304.142 1762.06,312.791 1776,307 C 1782.14,327.581 1791.67,349.027 1793.83,371 C 1794.7546,380.42732 1792.1786,390.39994 1791.0822,400.02272 z " />
		<path id="path2491" style="fill:#ffeeaa;fill-opacity:1;stroke:#000000" d="M 1608.8238,234.538 L 1632.66,253.039 L 1637.03,264.985 L 1653,278 L 1656.18,293 L 1651,311 L 1652,312 L 1671,310 C 1675.85,316.083 1674.34,321.787 1673,329 L 1683,334 L 1703,313 L 1710,312 C 1718.85,318.922 1728.64,316.494 1739,314 L 1740,315 C 1737.82,321.843 1731.61,326.594 1735,334 C 1728.34,342.176 1722.83,349.651 1720,360 L 1714,363 C 1713.1,374.368 1709.94,381.22 1699,386 L 1691,383 L 1689,385 L 1688,393 L 1683,389 L 1682,389 L 1677,393 L 1683,398 L 1681,403 L 1668,407 L 1659,396 L 1651,399 C 1640.34,390.783 1626.01,390.821 1614,386.398 C 1607.11,383.861 1605.09,379.055 1597,381 C 1590.88,376.043 1585.78,375.005 1578,375 C 1572.18,384.452 1557.7,392.585 1547,396 C 1538.12,387.62 1514.7,408.255 1506,413 L 1493,404 L 1496,401 L 1495,400 L 1476,375 C 1473.42,381.32 1470.71,383.592 1464,385 C 1456.29,377.287 1449.8651,373.09208 1438.9325,372.93254 C 1447.31,357.23 1463.11,350.455 1477,341 L 1478,333 L 1471,319 L 1465,325 L 1456,320 C 1456.22,312.525 1456.6,298.354 1462.3,293.318 C 1465.22,290.744 1469.56,290.658 1473,289 L 1469.6867,279.00127 C 1471.4474,279.66064 1473.1997,280.00723 1475,279.677 C 1483.84,278.057 1501.41,261.923 1503,283 C 1506.34,284.784 1507.97,285.453 1511,283 L 1519,288 L 1534,263 L 1528,262 L 1541,248 C 1546.58,248.992 1551.16,251.148 1557,250.985 C 1566.44,250.72 1570.86,245.477 1579,253 L 1583.64,239.184 L 1597.21,227.957 L 1608.5503,209.44007 C 1610.307,210.13871 1611.8184,210.67207 1613.24,211.02447 L 1600.5,231.35479 L 1608.8238,234.538 z " />
		<path id="path2613" style="fill:#ffeeaa;fill-opacity:1;stroke:#000000" d="M 1316.5097,1251.5512 C 1314.0975,1253.8623 1310.6706,1254.8338 1307.02,1252.97 C 1296.76,1247.74 1293.71,1234.69 1280,1233 L 1298,1249 L 1297,1255 L 1276,1242 L 1274,1250 C 1264.41,1258.53 1260.27,1250.58 1255,1242 L 1251,1250 L 1241,1247 L 1243,1240 C 1231.52,1227.25 1218.72,1236.6 1216,1251 C 1221.69,1253.74 1226.12,1252.34 1232,1251 L 1234,1257 L 1230,1261 L 1222,1260 L 1219,1265 L 1195,1259.28 L 1181,1265.26 L 1162,1268 L 1159,1263 L 1134,1266 L 1135,1262 C 1122.78,1257.47 1122.65,1250.12 1120,1239 L 1124,1236 C 1120.17,1223.88 1129.02,1215.27 1132.21,1204 C 1134.35,1196.48 1130.12,1190.3 1130.38,1183 C 1130.68,1174.99 1136.7,1168.9 1139.72,1162 C 1142.24,1156.25 1140.96,1152.6 1147,1149 C 1145.95,1135.64 1151.73,1131.08 1155.35,1119 C 1157.31,1112.47 1154.89,1106.88 1159.48,1101 C 1167.16,1091.18 1179.02,1084.31 1186.27,1074.7 C 1190.99,1068.44 1193.9,1056.45 1197,1049 L 1205,1048 L 1219.81,1012 L 1229.61,984 L 1225,954 L 1239,965 L 1244,962 C 1242.23,957.79 1242.01,955.155 1244,951 L 1250,951 L 1253,963 L 1270,968 L 1265,974 L 1265,980 L 1262,983 C 1268.85,985.291 1274.29,978.361 1275,972 L 1293,965 L 1292,958 L 1308,956 L 1310,947 L 1320,948 L 1322,940 L 1314,935 C 1319.61,924.224 1332.98,924.767 1343,929 L 1343,937 L 1347,940 L 1355,942 L 1356,942 L 1362,938 L 1366,962 L 1356,966 C 1351.47,971.964 1351,976.713 1351,984 L 1337,993 L 1335,988 L 1328,987 L 1326,993 L 1320,995 C 1318.13,990.887 1316.61,988.72 1312,988 L 1303,1001 L 1298,996 L 1294.38,1005.72 L 1282.43,1011.56 L 1277.74,1022 L 1265,1033 L 1259,1031 L 1251,1048 C 1256.33,1053.34 1262.25,1057.66 1257,1065 L 1260,1074 L 1251,1077 L 1239,1060 L 1232,1061 L 1228,1070 L 1218,1071 L 1216,1080 L 1217,1081 L 1224,1082 C 1221.63,1093.43 1212.7,1112.72 1198,1105 C 1194.08,1116.68 1202.39,1123.45 1210,1131 L 1211,1160 L 1205,1159 L 1203,1164 L 1216,1175 C 1222.89,1175.24 1228.08,1181.85 1232,1187 L 1226,1190 L 1239,1201 C 1236.27,1209.74 1231.3,1214.61 1238,1223 L 1253,1214 L 1260,1217 L 1262,1207 L 1271,1212 L 1269,1199 L 1273,1196 L 1267,1179 C 1273.49,1175.11 1282.04,1177.92 1289,1180 L 1282,1189 L 1288,1187 L 1297,1202 C 1290.97,1205.39 1289.06,1208.01 1289,1215 L 1282,1219 L 1291,1225 L 1294,1218 L 1301,1217 L 1297,1213 L 1301,1207 L 1313,1213 L 1314,1214 L 1313,1219 L 1319,1224 C 1319.17,1228.02 1319.95,1231.96 1320,1236 C 1320.03,1238.65 1320.12,1241.35 1319.96,1244 C 1319.7799,1246.8678 1318.485,1249.6587 1316.5097,1251.5512 z " />
		<path id="path2165" style="fill:#fff6d5;fill-opacity:1;stroke:#000000" d="M 1340,1267 L 1331,1266 L 1316.4612,1251.482 C 1318.485,1249.6587 1319.7799,1246.8678 1319.96,1244 C 1320.12,1241.35 1320.03,1238.65 1320,1236 C 1319.95,1231.96 1319.17,1228.02 1319,1224 L 1313,1219 L 1314,1214 L 1313,1213 L 1301,1207 L 1297,1213 L 1301,1217 L 1294,1218 L 1291,1225 L 1282,1219 L 1289,1215 C 1289.06,1208.01 1290.97,1205.39 1297,1202 L 1288,1187 L 1282,1189 L 1289,1180 C 1282.04,1177.92 1273.49,1175.11 1267,1179 L 1273,1196 L 1269,1199 L 1271,1212 L 1262,1207 L 1260,1217 L 1253,1214 L 1238,1223 C 1231.3,1214.61 1236.27,1209.74 1239,1201 L 1226,1190 L 1232,1187 C 1228.08,1181.85 1222.89,1175.24 1216,1175 L 1203,1164 L 1205,1159 L 1211,1160 L 1210,1131 C 1202.39,1123.45 1194.08,1116.68 1198,1105 C 1212.7,1112.72 1221.63,1093.43 1224,1082 L 1217,1081 L 1216,1080 L 1218,1071 L 1228,1070 L 1232,1061 L 1239,1060 L 1251,1077 L 1260,1074 L 1257,1065 C 1262.25,1057.66 1256.33,1053.34 1251,1048 L 1259,1031 L 1265,1033 L 1277.74,1022 L 1282.43,1011.56 L 1294.38,1005.72 L 1298,996 L 1303,1001 L 1312,988 C 1316.61,988.72 1318.13,990.887 1320,995 L 1326,993 L 1328,987 L 1335,988 L 1337,993 L 1351,984 C 1351,976.713 1351.47,971.964 1356,966 L 1366.0625,962 L 1371,961 L 1372,970 L 1383,973 L 1387,965 L 1393,969 C 1392.18,975.522 1391.69,979.603 1396,985 L 1396.72,1004 L 1396.74,1019 L 1405,1042 C 1412.78,1045.8 1425.46,1052.03 1426.31,1062 C 1426.85,1068.33 1422.82,1074.55 1423.14,1081 C 1423.47,1087.51 1428.93,1091.49 1426,1098 L 1421,1096 L 1416,1100 L 1409,1098 C 1407.14,1107.61 1414.45,1115.65 1406.37,1124.89 C 1398.1,1134.33 1383.84,1129.16 1379.12,1143 C 1376.72,1150.02 1385.92,1158.16 1387.49,1165 C 1389.75,1174.91 1394.83,1187.94 1394.39,1198 C 1393.88,1209.58 1386.28,1219.11 1392,1231 L 1388,1235 L 1393,1250 L 1386,1257 L 1383,1253 L 1366,1254.61 L 1340,1267 z " />
		<path id="path2199" style="fill:#ffcc00;fill-opacity:1;stroke:#000000" d="M 1196.9365,1048.9365 L 1205,1048 L 1219.81,1012 L 1229.61,984 L 1225.1379,954.19588 C 1219.3158,953.28577 1211.65,953.746 1206,952.462 C 1197.49,950.53 1190.33,939.408 1187,932 L 1179,934 L 1169,924 L 1169,920 C 1163.35,918.572 1156.84,919.808 1152,923 L 1151,934 L 1129,950 L 1127,946 L 1122,950 L 1118,948 L 1116,958 L 1103,966 L 1110,977 C 1104.32,987.003 1099.99,993.999 1088,994 L 1087,995 C 1087,1002.37 1086.05,1009.5 1090.0238,1015.9444 L 1107,1020.4 L 1117,1015.68 L 1128,1016 L 1129,1017 L 1133,1029 L 1158,1032 C 1164.18,1037.98 1167.09,1037.16 1175,1036 L 1196.9365,1048.9365 z " />
		<path id="path2633" style="fill:#ffeeaa;fill-opacity:1;stroke:#000000" d="M 1259,718 C 1241.52,704.719 1240.88,726.596 1236.53,738 C 1233.24,746.634 1228.43,752.659 1221,758 L 1216,755 C 1209.16,761.833 1198.87,767.33 1204,778 L 1194,781 C 1190.06,774.501 1186.07,768.779 1186,761 L 1168.15,741.105 L 1157.92,732.787 L 1150.72,719.213 L 1127,705 L 1127,700 C 1118.25,692.535 1108.13,682.179 1102.63,671.999 C 1098.55,664.426 1096.75,656.574 1092,649 L 1079,651 C 1067,637.973 1064.31,633.318 1071,617 L 1067,610 L 1066,609 C 1057.26,606.978 1051.16,602.331 1046,595 C 1053.64,590.902 1065.43,585.72 1073,591 L 1083,581 L 1070,565 L 1076,563 L 1080,556 L 1088,556 C 1094.02,548.946 1098.604,542.08208 1108.877,541.93254 L 1112,536 L 1128,538.073 L 1140,529.239 L 1159,517 C 1157.81,512.817 1158.48,510.507 1161,507 C 1168.26,510.099 1170.81,517.432 1177.01,521.891 C 1183.27,526.384 1192.53,525.424 1195,534 C 1182.21,541.775 1190.86,548.199 1195.68,557.17 C 1199.27,563.841 1197.52,568.07 1206,571 C 1210.27,568.119 1214.93,563.851 1220,562.583 C 1224.53,561.452 1229.52,564.332 1233.79,561.821 C 1242.34,556.791 1242.04,542.998 1237,536 C 1238.12,532.408 1239.75,528.726 1237.68,525.13 C 1233,516.979 1221.36,518.131 1231,507 L 1240,512 C 1245.73,502.623 1252.47,502.001 1263,502 L 1264,503 L 1266,521 L 1282,521 C 1286.48,514.438 1294.28,504.557 1303,509 L 1304,522 L 1304,526 L 1284,532 L 1295.8969,547.93386 L 1296,548 L 1291,555 C 1284.1463,555.25467 1282.7479,559.33345 1280,564 C 1260.21,564.013 1257.4,575.193 1255,593 L 1270.21,609.914 L 1284,614.5 C 1286.16,605.639 1291.11,603.244 1299,602 C 1304.9806,608.52499 1314.4533,607.36147 1323.2627,606.44805 C 1325.9418,606.22463 1328.5601,605.98647 1331,606 L 1332,607 L 1333,614 C 1328.35,619.607 1318.59,633.209 1329,638 C 1319.79,648.574 1315.72,668.802 1299,669 L 1297,667 L 1297,662 L 1292,658 L 1280,664 L 1281,675 L 1280,676 C 1268.56,676.903 1242.84,679.009 1248,697 L 1259,694 C 1262.58,702.328 1264.47,710.222 1259,718 z M 1319,591 C 1322,584.394 1318.9,578.511 1315,573 L 1308,573 L 1307,583 L 1316,586 L 1319,591 z " />
		<path id="path2599" style="fill:#fff6d5;fill-opacity:1;stroke:#000000" d="M 1295.8969,547.93386 L 1284,532 L 1304,526 L 1304,522 L 1326,504 L 1331,516 L 1314,522 C 1314.47,528.254 1323.79,547.927 1307,540 L 1306,535 C 1294.35,538.351 1304.01,545.227 1303,552 L 1295.8969,547.93386 z " />
		<path id="path2430" style="fill:#ffcc00;fill-opacity:1;stroke:#000000" d="M 1263.9931,133.99602 C 1266.7031,141.07702 1267.9,147.976 1274,153 C 1274.01,161.193 1275.58,166.634 1283,171 L 1283,177 C 1291.6,181.889 1299.52,190.745 1300,201 L 1288,212 C 1280.51,209.633 1271.79,208.517 1265,213 L 1265,214 L 1269,217 L 1263,221 L 1264,228 L 1266,230 L 1278,227 L 1282,230 L 1282,249 C 1288.56,253.772 1293.68,257.3 1297,265 L 1284,268 C 1284.89,273.165 1286.96,282.905 1291.28,286.258 C 1299.19,292.399 1312.12,288.449 1320.83,295.044 C 1328.03,300.504 1329.78,309.011 1334.7,315.96 C 1336.97,319.16 1340.8,320.863 1342.86,324.184 C 1349.46,334.833 1348.94,342.187 1364,341 C 1366.25,345.081 1366.5,347.593 1365,352 L 1371,360 L 1377,358 L 1380,365 L 1396,360 L 1401,367 L 1421,364 L 1439,373 C 1447.31,357.23 1463.11,350.455 1477,341 L 1478,333 L 1471,319 L 1465,325 L 1456,320 C 1456.22,312.525 1456.6,298.354 1462.3,293.318 C 1465.22,290.744 1469.56,290.658 1473,289 L 1469.6867,279.00127 C 1466.53,277.99354 1463.3794,276.10899 1460,276 L 1455,265 L 1468.91,259.397 L 1486,245 L 1484.14,228 L 1486,215 L 1473,216 L 1452,228 L 1422,206 C 1410.77,206.357 1407.53,214.398 1403,223 L 1398,222 C 1399.57,218.84 1401.61,216.068 1403.3,213 C 1412.99,195.445 1380.27,204.801 1374,203 L 1392,190 C 1391.52,178.745 1391.11,159.215 1380,153 L 1377,157 L 1355,144 L 1355,140 L 1351,137 C 1346.1,143.158 1343.07,145.932 1335,146 L 1333,150 L 1322,149 C 1322.43,137.258 1311.81,142.772 1305,140.401 C 1295.39,137.052 1288.52,134.81 1278,134.089 C 1273.2189,133.7617 1268.5666,134.03608 1263.9931,133.99602 z M 1260,155 L 1262,163 C 1256.75,165.526 1251.18,165.763 1246,163 C 1248.48,157.017 1253.99,155.884 1260,155 z M 1238,163 L 1244,173 L 1238,177 L 1236,164 L 1238,163 z M 1259.1301,172.7822 L 1266,173 L 1258,175 L 1257.6343,174.98326 L 1259.1301,172.7822 z M 1271,187 L 1272,188 C 1270.77,192.7 1268.93,195.231 1264,196 L 1262,190 L 1271,187 z M 1281.0483,188.93429 L 1279,188 C 1279.0875,187.95375 1282.0192,187.01946 1282.0192,187.01946 L 1281.0483,188.93429 z M 1293,195 C 1291.16,199.625 1289.02,201.62 1284,202 L 1282,196 C 1286.09,194.102 1288.81,192.981 1293,195 z M 1491,193 C 1498.43,197.9 1502.47,201.134 1505,210 C 1495.76,214.639 1488.05,211.729 1480,206 L 1480,200 L 1491,193 z M 1200,241 C 1201.4588,240.32953 1194.8103,238.51752 1196,240 C 1197.1897,241.48248 1198.5412,241.67047 1200,241 z M 1262.834,135.19849 C 1259.305,131.30949 1249.5676,131.665 1244.5626,129 C 1244.5686,120.947 1247.0046,116.812 1252.5626,111 L 1250.5626,105 L 1249.5626,105 C 1241.1936,119.339 1231.5036,135.886 1236.5626,153 L 1240.5626,136 L 1248.5626,139 L 1262.834,135.19849 z " />
		<path id="path2663" style="fill:#ffeeaa;fill-opacity:1;stroke:#000000" d="M 1439,611 L 1443.4283,618.87245 L 1448,627 L 1463,622 C 1463,614.693 1461.85,607.802 1470,605 L 1485,611 C 1481.14,616.937 1478.01,622.767 1480.0322,630.05848 L 1503,619 L 1507,611.5 L 1513,612 C 1522.01,624.251 1508.21,624.339 1502.6,631.289 C 1500.01,634.508 1501,640.136 1501,644 C 1495.13,646.439 1492.17,647.906 1485.7865,645.82457 L 1474.0322,641.91525 L 1465,641 L 1467,637 L 1459,630 L 1453,633 L 1455,640 L 1452,646 L 1451,647 L 1441,649 L 1443,641 L 1435.8591,639.05104 L 1435,643 L 1423.04,650.329 L 1406,667.66 L 1379,682 L 1385,697 L 1389,696 C 1394.69,704.253 1397.3,706.946 1406,712 L 1404,718 L 1408,723 L 1418,718 L 1425,729 L 1443,722 L 1446,727 C 1451.33,725.505 1454.81,721 1460,718.969 C 1468.01,715.832 1476.91,718.559 1476.06,728.961 C 1475.54,735.284 1470.88,742.031 1470,749 L 1471,750 L 1476,749 L 1475,756 L 1479,758 L 1483,755 L 1485,763 L 1489,761 C 1489,746.102 1489.46,732.819 1483,719 L 1500,716.471 L 1522,707 L 1525,718 C 1533.71,722.216 1546.69,722.217 1556,720 C 1562.57,726.046 1563.05,730.971 1573,731 L 1582.5,743 L 1599,747 C 1603.74,739.373 1603.18,733.523 1603,725 L 1598,722 L 1600,703 L 1592,696 L 1597,690 L 1594,684 L 1594,683 L 1615,669 L 1634,678 C 1636.02,675.008 1637.92,671.131 1641.18,669.318 C 1654.8,661.755 1665.21,676.58 1678,668 L 1692,677 C 1704.72,673.33 1711.89,667.009 1726,667 C 1729.2225,673.98887 1734.7903,676.49506 1741.0351,676.98508 L 1741,674 L 1741.5,673 L 1755,657 C 1738.96,651.196 1713.45,657.314 1708,637 C 1722.74,631.354 1726.82,620.628 1719,606 L 1696,607 L 1693,602 C 1688.35,602 1681.42,603.634 1677.09,602.168 C 1667.99,599.089 1662.12,586.105 1659,578 L 1644.046,585.68991 L 1643,583 L 1642,582 L 1633.948,584.95995 L 1625.26,609 L 1619,628 L 1612,631 L 1608,637 C 1599.72,635.87 1592.66,634.101 1586,640 L 1568,637.5 L 1553,625 L 1538,633 C 1528.97,630.635 1530.22,623.171 1525,617 L 1525,603 L 1553,604 L 1554,604 L 1569,608 L 1570,609 L 1571,618 C 1578.3,616.111 1584.99,615.099 1589,608 L 1580,605 C 1569.07,594.061 1570.67,590.588 1572.79,577 C 1574.16,568.18 1572.98,564.624 1580,558 L 1587,561 L 1593,558 L 1600,563 C 1608.83,553.459 1603.82,547.669 1604.35,537 C 1604.91,525.696 1609.57,516.581 1603,506 L 1592,505 C 1588.87,496.822 1587.88,490.887 1595,484 L 1586,474 L 1580,474 C 1575.78,466.579 1577,460.196 1577,452 C 1563.97,446.387 1547.53,438.599 1540,426 L 1531,428 L 1526,432 C 1524.84,458.534 1492.18,441.816 1478,448 L 1478,452 L 1457,458 L 1458,468 C 1470.44,477.233 1473.91,493.373 1480,507 L 1476.6251,509.69991 L 1475,511 L 1485,525 L 1483,556 L 1486,560 C 1482.01,564.002 1478.44,567.146 1478,573 L 1443,584 L 1446,596 L 1439,611 z M 1446.8504,788.11308 L 1424,788 L 1427,801 C 1438.22,801 1445.95,801.817 1446,815 L 1458,817 L 1459,816 L 1463,808 C 1462.97,797.494 1458.5604,788.39608 1446.8504,788.11308 z " />
		<path id="path2556" style="fill:#ffeeaa;fill-opacity:1;stroke:#000000" d="M 1275.1423,424.51687 L 1269.27,420.811 L 1258.7,403.089 L 1250.9954,393.93818 L 1261,386 L 1268,389 L 1266,399 C 1276.23,403.951 1285.97,400.914 1294,410 C 1289.88,416.269 1292.94,421.994 1293,429 L 1287,432 L 1275.1423,424.51687 z " />
		<path id="path2531" style="fill:#fff6d5;fill-opacity:1;stroke:#000000" d="M 1231,507 C 1221.36,518.131 1233,516.979 1237.68,525.13 C 1239.75,528.726 1238.12,532.408 1237,536 C 1242.04,542.998 1242.34,556.791 1233.79,561.821 C 1229.52,564.332 1224.53,561.452 1220,562.583 C 1214.93,563.851 1210.27,568.119 1206,571 C 1197.52,568.07 1199.27,563.841 1195.68,557.17 C 1190.86,548.199 1182.21,541.775 1195,534 C 1192.53,525.424 1183.27,526.384 1177.01,521.891 C 1170.81,517.432 1168.26,510.099 1161,507 C 1158.48,510.507 1157.81,512.817 1159,517 L 1140,529.239 L 1128,538.073 L 1112,536 L 1109,542 L 1105,534 L 1105,533 C 1106.47,530.415 1107.72,527.841 1108.64,525 C 1115.59,503.536 1081.28,509.921 1075,495 L 1082,489 L 1078,484 L 1081,476 L 1108,478 L 1111.83,451 L 1120.27,438 L 1130,416 C 1123.08,399.646 1142.41,371.299 1114,370 L 1113,369 C 1113,354.929 1112.59,347.905 1125,340 L 1120,330 C 1126.94,324.492 1133.86,318.282 1143,317.184 C 1150.51,316.283 1157.65,319.345 1165,318.776 C 1171.2774,318.29043 1180.2338,315.49927 1188.6793,314.66745 L 1189,345 L 1201,344 C 1203.81,353.773 1196.1,358.031 1192.4,366 C 1190.46,370.19 1190.37,375.385 1186.77,378.683 C 1184.16,381.081 1180.05,380.716 1177.74,383.434 C 1174.95,386.725 1175.7,392.974 1174,397 L 1170,395 L 1165,413 L 1182,437 L 1172,451 C 1173.25,459.514 1173.37,462.468 1167,469 L 1167,470 C 1177.77,479.112 1204.98,465.697 1203.96,490 C 1203.81,493.438 1202.76,496.67 1202,500 C 1213.08,503.285 1218.37,504.582 1229,500 L 1231,507 z M 1169,306 L 1157,310 L 1156,306 L 1169,306 z M 1184,305 L 1176,306 C 1177.8868,304.80877 1178.3956,302.10179 1184,305 M 1146.7983,309.88228 L 1149.881,309.08014 L 1150.67,311 L 1146.7983,309.88228 z M 1137.1045,312.89682 L 1133.1733,311.70503 L 1123,315 L 1137,313 M 1105,314 L 1116,317 L 1104,316 L 1105,314 z M 1102.035,320.2543 L 1104.625,320.7252 L 1103.67,322.333 L 1102.035,320.2543 z M 1093,327 L 1089,333 L 1082,330 C 1084.75,325.414 1088.31,324.597 1093,327 z " />
		<path id="path2650" style="fill:#ffcc00;fill-opacity:1;stroke:#000000" d="M 1438.9093,610.94152 L 1409,601 L 1405,613 L 1408,619 L 1403,623 L 1396,611 L 1381,614 L 1380,609 L 1370,607 L 1362,597 L 1363,589 L 1379,598.577 L 1397,589 C 1397,584.598 1395.46,575.525 1402,577 L 1402,558 L 1417,550 L 1413,546 L 1419,536 L 1412,535 L 1411,534 C 1411.63,529.939 1413.03,528.15 1417,527 L 1424,529 L 1427,535 L 1450,526 L 1467.5,541 L 1474,541 L 1462,522 C 1461.84,517.167 1460.94,515.436 1456,515 C 1457.59,508.137 1460.79,504.568 1466,500 C 1471,501.385 1474.4213,504.87072 1476.6082,509.67782 L 1475,511 L 1485,525 L 1483,556 L 1486,560 C 1482.01,564.002 1478.44,567.146 1478,573 L 1443,584 L 1446,596 L 1438.9093,610.94152 z M 1436,639 L 1443.2142,618.93622 L 1448,627 L 1463,622 C 1463,614.693 1461.85,607.802 1470,605 L 1485,611 C 1481.14,616.937 1478.01,622.767 1480,630 L 1474,642 L 1465,641 L 1467,637 L 1459,630 L 1453,633 L 1455,640 L 1452,646 L 1451,647 L 1441,649 L 1443,641 L 1436,639 z M 1508,509 C 1512.18,511.624 1515.22,513.957 1516,519 L 1521,523 L 1521,525 L 1515,533 L 1509,533 L 1500,515 L 1508,509 z " />
		<path id="path2271" style="fill:#fff6d5;fill-opacity:1;stroke:#000000" d="M 1603,724.93212 C 1603.18,733.45512 1603.74,739.373 1599,747 L 1582.5,743 L 1573,731 C 1563.05,730.971 1562.57,726.046 1556,720 C 1546.69,722.217 1533.71,722.216 1525,718 L 1522,707 L 1500,716.471 L 1483,719 C 1489.46,732.819 1489,746.102 1489,761 L 1485,763 L 1483,755 L 1479,758 L 1475,756 L 1476,749 L 1471,750 L 1470,749 C 1470.88,742.031 1475.54,735.284 1476.06,728.961 C 1476.91,718.559 1468.01,715.832 1460,718.969 C 1454.81,721 1451.33,725.505 1446,727 L 1443,722 L 1425,729 L 1418,718 L 1408,723 L 1403.948,718 L 1399.2573,715.27199 L 1403,735 L 1400,739 L 1388,738 L 1387,739 L 1387,746 L 1380,750 L 1380,752 L 1388,757 L 1383,768 L 1378,768 L 1377,769 L 1373,796 L 1380,796 L 1387,790 L 1392,810 C 1400.44,810 1411.41,811.51 1417.49,818.278 C 1421.87,823.15 1423.23,830.09 1428.17,834.786 C 1432.59,838.985 1439.04,840.471 1444,844 L 1444,859 C 1447.86,860.097 1450.15,859.904 1454,856.5 L 1462,857 L 1463,853 C 1458.55,848.645 1453.5,845.59 1453,839 C 1464.55,831.68 1469.39,835.596 1481,838.571 C 1486.81,840.06 1491.57,838.671 1497,842 L 1497,850 L 1498,851 L 1507,849 L 1508,820 C 1513.49,816.312 1517.32,814.299 1523.5,816.5 L 1523,825 L 1533,835 C 1539.24,832.952 1541.65,830.832 1548,834 C 1553.59,829.271 1557.6577,829.66076 1563.9938,832.06788 C 1564,824.552 1565.09,820.373 1569,814 L 1565,810 L 1578,800 L 1581,807 C 1585.57,805.557 1585.67,802.17 1587,798 L 1593,803 C 1597.07,796.151 1601.35,794.782 1608,791 L 1610,784 L 1601,782 C 1603.52,773.461 1607.08,762.117 1617,762 L 1618,761 L 1618,757 L 1632,753 L 1637,756 L 1641,748 L 1627,737 L 1626,725 L 1616,731 L 1613,721.5 L 1603,724.93212 z M 1523,667.5 L 1516,668 L 1513,669 L 1515.57,682 L 1513,692 C 1526.09,696.265 1535.35,675.397 1528,666 L 1523,667.5 z M 1478,698 L 1481,708 L 1465,706.058 L 1440,710 C 1431.76,699.312 1424.16,687.786 1438,678 L 1447,684 C 1458.28,675.388 1474.05,671.187 1488,675.091 C 1494.77,676.985 1507.07,677.639 1500.77,687.895 C 1496.38,695.036 1484.6,693.362 1478,698 z " />
		<path id="path2662" style="fill:#ffe680;fill-opacity:1;stroke:#000000" d="M 1258.9489,785 C 1254.509,781.259 1250.97,780.997 1246,784 C 1246,784 1250.97,780.997 1245.8055,784.09007 L 1251,799 L 1258.9489,785 z M 1090,1016 C 1086.05,1009.5 1087,1002.37 1087,995 L 1088,994 C 1099.99,993.999 1104.32,987.003 1110,977 L 1103,966 L 1116,958 L 1118,948 L 1122,950 L 1127,946 L 1129,950 L 1151,934 L 1152,923 C 1156.84,919.808 1163.35,918.572 1169,920 C 1186.07,891.905 1153.96,872.623 1145,849 L 1149,846 L 1145,836 L 1153,832 L 1151,818 L 1145,816 L 1154.77,804.996 L 1153.94,794 L 1161,777 L 1172,777 L 1176,784 L 1180,779 C 1184.66,781.612 1188.931,783.56377 1193.8955,780.99338 C 1190.06,774.501 1186.07,768.779 1186,761 L 1168.15,741.105 L 1157.92,732.787 L 1150.72,719.213 L 1127,705 L 1127,700 C 1118.25,692.535 1108.13,682.179 1102.63,671.999 C 1098.55,664.426 1096.75,656.574 1092,649 L 1079,651 C 1067,637.973 1064.31,633.318 1071,617 L 1067,610 L 1066,609 C 1057.26,606.978 1051.16,602.331 1045.8232,595.14645 L 1041,599 C 1033.94,593.771 1028.57,591.614 1020,590 L 1018,595 L 1009,594 L 1006,598 L 998,598 L 1000,610 L 1011,626 C 1011.03,634.697 1015.73,639.467 1021,646 L 1018.26,672 L 1007,695 L 1008,696 L 1012,696 L 1015,703 L 992,719 L 986,716 L 987,728 L 996,728 L 997,729 L 997,734 L 1004,739 C 1003.9,747.288 999.082,750.173 993,755 C 996.699,766.367 1007.01,779.173 1017,786 C 1015.23,789.806 1010.63,792.928 1009.75,796.996 C 1008.2,804.178 1018.69,803.997 1023,804 C 1027.81,811.866 1028.41,825.312 1025,834 L 1019,832 C 1006.84,844.056 995.524,859.849 999.519,878 C 1000.64,883.08 1004.24,886.365 1006.15,891 C 1009.68,899.561 1018.52,913.146 1030,911 L 1035,916 C 1028.54,932.649 1011.88,947.646 1020,966 C 1028.77,966.104 1032.23,972.183 1038,978 C 1035.31,988.602 1049.86,1011.06 1060,1015 L 1063,1007 C 1077.32,1007.01 1076.51,1013.5 1086,1021 L 1090,1016 z M 1233,780 L 1239,784 L 1239,789 L 1235,792 L 1235,800 L 1236,801 L 1244,801 C 1247.36,806.918 1246.62,810.55 1246,817 L 1234,823 C 1223.72,816.721 1215.93,803.751 1215,792 L 1233,780 z " />
		<path id="path2609" style="fill:#ffe680;fill-opacity:1;stroke:#000000" d="M 1563.9938,832.06788 L 1570,829 L 1578,835 L 1577,839 L 1598,845 L 1590,852 L 1600,867 C 1596.88,880.32 1616.91,886.16 1624.85,894.289 C 1628.33,897.853 1629.2,902.52 1633,906 C 1632.54,916.042 1628.46,923.621 1620,929 C 1625.16,936.33 1632.21,940.434 1633,950 L 1638,954 C 1638.55,960.689 1640.54,964.151 1646,968 C 1645.55,979.131 1650.54,987.447 1662,990.891 C 1666.38,992.207 1671.82,990.963 1675.83,993.179 C 1682.16,996.679 1685.03,1004.45 1690.1,1009.27 C 1695.36,1014.27 1700.75,1017.19 1701,1025 L 1703,1027 C 1718.94,1027 1721.83,1037.73 1728,1050 L 1737,1048 C 1742.96,1050.03 1745.37,1054.86 1750.09,1058.57 C 1756.82,1063.86 1762.86,1065.69 1767.35,1074 C 1769.74,1078.44 1768.01,1083.23 1768.01,1088 C 1768.01,1100.08 1770.18,1104.84 1762,1115 L 1740,1110 C 1728.24,1118.06 1731.55,1135.51 1721.24,1146.91 C 1715.8,1152.92 1708.22,1152.2 1701,1154.7 C 1693.77,1157.19 1690.97,1162.38 1684.83,1165.82 C 1682.09,1167.35 1678.79,1166.63 1676,1168.03 C 1667.29,1172.4 1663.03,1180.8 1663,1190 L 1673,1198 L 1675,1208 C 1681.53,1207.77 1689.5,1218.43 1688.39,1225 C 1687.37,1231.06 1682.09,1235.67 1681,1242 L 1685,1245 L 1695,1243 C 1699.35,1251.66 1699.29,1273.04 1692,1280 C 1681.59,1274.23 1670.01,1271.29 1670,1258 C 1662.32,1251.68 1658.23,1252.2 1649,1250 L 1645,1257 L 1629.96,1249.86 L 1614.5,1247.5 L 1615,1244 C 1604.52,1241.48 1604.26,1253.43 1606,1260 L 1586,1259 C 1573.76,1267.08 1561.1,1266 1547,1266 L 1545,1268 L 1543,1276 C 1534.7,1276 1528.21,1276.7 1526,1286 L 1508,1295 L 1506,1291 L 1496,1297 L 1483,1295 L 1484,1290 L 1472,1281.5 L 1473,1280 L 1469,1272 L 1468,1272 L 1462,1276 L 1461,1276 C 1451.97,1269.2 1446.03,1266.46 1437,1275 L 1427,1271 C 1421.9,1277.93 1425.69,1282.37 1424.68,1290 C 1423.45,1299.31 1411.04,1313.3 1401,1311 L 1404,1298 L 1390,1299 C 1385.44,1284.72 1370.6,1271.52 1357,1265 C 1352.22,1270.8 1346.08,1271.37 1340,1267 L 1366,1254.61 L 1383,1253 L 1386,1257 L 1393,1250 L 1388,1235 L 1392,1231 C 1386.28,1219.11 1393.88,1209.58 1394.39,1198 C 1394.83,1187.94 1389.75,1174.91 1387.49,1165 C 1385.92,1158.16 1376.72,1150.02 1379.12,1143 C 1383.84,1129.16 1398.1,1134.33 1406.37,1124.89 C 1414.45,1115.65 1407.14,1107.61 1409,1098 L 1416,1100 L 1421,1096 L 1426,1098 C 1428.93,1091.49 1423.47,1087.51 1423.14,1081 C 1422.82,1074.55 1426.85,1068.33 1426.31,1062 C 1425.46,1052.03 1412.78,1045.8 1405,1042 L 1396.74,1019 L 1396.72,1004 L 1396,985 C 1391.69,979.603 1392.18,975.522 1393,969 L 1387,965 L 1383,973 L 1372,970 L 1371,961 L 1366.0625,962 L 1362,938 L 1356,942 L 1355,942 L 1347,940 L 1343,937 L 1343,929 C 1332.98,924.767 1319.61,924.224 1314,935 L 1322,940 L 1320,948 L 1310,947 L 1308,956 L 1292,958 C 1284.11,946.508 1294.6,942.192 1294.68,931 C 1294.73,924.146 1288.79,919.985 1286.7,914 C 1283.86,905.867 1284.46,895.317 1286,887 C 1283.9842,884.44734 1283.2691,882.2811 1283.4705,880.44448 C 1283.9695,875.89415 1290.0939,873.36718 1296,872 L 1298,876 C 1303.56,872.263 1309.89,868.001 1317,870.603 C 1322.93,872.775 1325.13,876.919 1332,877 L 1333,876 L 1334,856 L 1342,859 L 1355.49,845 L 1362,827 L 1369,832 L 1392,810 C 1400.44,810 1411.41,811.51 1417.49,818.278 C 1421.87,823.15 1423.23,830.09 1428.17,834.786 C 1432.59,838.985 1439.04,840.471 1444,844 L 1444,859 C 1447.86,860.097 1450.15,859.904 1454,856.5 L 1462,857 L 1463,853 C 1458.55,848.645 1453.5,845.59 1453,839 C 1464.55,831.68 1469.39,835.596 1481,838.571 C 1486.81,840.06 1491.57,838.671 1497,842 L 1497,850 L 1498,851 L 1507,849 L 1508,820 C 1513.49,816.312 1517.32,814.299 1523.5,816.5 L 1523,825 L 1533,835 C 1539.24,832.952 1541.65,830.832 1548,834 C 1553.59,829.271 1557.6638,829.59288 1563.9938,832.06788 z " />
		<path id="path2675" style="fill:#ffe680;fill-opacity:1;stroke:#000000" d="M 1634,585 L 1625.26,609 L 1619,628 L 1612,631 L 1608,637 C 1599.72,635.87 1592.66,634.101 1586,640 L 1568,637.5 L 1553,625 L 1538,633 C 1528.97,630.635 1530.22,623.171 1525,617 L 1525,603 L 1553,604 L 1554,604 L 1569,608 L 1570,609 L 1571,618 C 1578.3,616.111 1584.99,615.099 1589,608 L 1580,605 C 1569.07,594.061 1570.67,590.588 1572.79,577 C 1574.16,568.18 1572.98,564.624 1580,558 L 1587,561 L 1593,558 L 1600,563 C 1608.25,577.325 1619.32,580.324 1634,585 z M 1474.0322,641.91525 L 1485.7865,645.82457 C 1492.17,647.906 1495.13,646.439 1501,644 C 1501,640.136 1500.01,634.508 1502.6,631.289 C 1508.21,624.339 1522.01,624.251 1513,612 L 1507,611.5 L 1503,619 L 1480.0322,630.05848 L 1474.0322,641.91525 z " />
		<path id="path2307" style="fill:#ffcc00;fill-opacity:1;stroke:#000000" d="M 1258.8204,718.05104 C 1264.2904,710.27304 1262.58,702.328 1259,694 L 1248,697 C 1242.84,679.009 1268.56,676.903 1280,676 L 1281,675 L 1280,664 L 1292,658 L 1297,662 L 1297,667 L 1299,669 C 1315.72,668.802 1319.79,648.574 1329.0511,638 C 1336.5621,639.032 1346.95,641.141 1352,647 C 1345.12,658.848 1355.02,672.672 1342,680 C 1343.78,688.788 1352.33,691.006 1360,693 C 1362.18,688.344 1359.9,685.435 1358,681 L 1364,675 L 1368,678 L 1375,677 L 1379,682 L 1385,697 L 1389,696 C 1394.69,704.253 1397.3,706.946 1406,712 L 1403.948,718 L 1399.2573,715.27199 L 1403,735 L 1400,739 L 1388,738 L 1387,739 L 1387,746 L 1380,750 L 1380,752 L 1388,757 L 1383,768 L 1378,768 L 1377,769 L 1373,796 L 1380,796 L 1387,790 L 1392,810 L 1369,832 L 1362,827 L 1355.49,845 L 1342,859 L 1334,856 L 1333,876 L 1332,877 C 1325.13,876.919 1322.93,872.775 1317,870.603 C 1309.89,868.001 1303.56,872.263 1298,876 L 1296,872 C 1290.0939,873.36718 1283.9695,875.89415 1283.274,880.31203 L 1273.96,873.175 L 1259,869 L 1259,862 C 1262.63,858.847 1266.75,850.697 1272,850.632 C 1280.53,850.526 1286.85,861.284 1296.96,855.972 C 1308.89,849.703 1307.52,832.833 1314,823 L 1321,832 C 1332.96,825.607 1329.63,803.39 1333,792 C 1338.19,795.373 1341.73,798.06 1348,796 C 1348,788.217 1346.97,782.804 1343,776 L 1322,775 L 1319,769 L 1315,769 L 1312,765 L 1305,767 L 1301,762 L 1280,775 L 1280,782 C 1274.96,784.643 1271.3,785.233 1266,783 L 1258.9489,785 C 1254.4579,781.259 1250.97,780.997 1245.8055,784.09007 L 1243,777 C 1253.26,768.462 1247.21,763.252 1248.17,752 C 1248.79,744.773 1256.01,739.826 1257.9,733 C 1259.45,727.424 1255.0304,723.50304 1258.8204,718.05104 z M 1446.8504,788.11308 L 1424,788 C 1418.45,780.498 1418.51,771.898 1426,766 C 1435.39,768.673 1433.97,771.892 1438.89,778.812 C 1441.46,782.413 1444.8404,783.94008 1446.8504,788.11308 z " />
	</g>
	<g id="layer2" style="display:inline" transform="translate(-985.5,-104.5)">
		<text style="font-size:20px;font-style:normal;font-variant:normal;font-weight:normal;font-stretch:normal;text-align:start;line-height:100%;writing-mode:lr-tb;text-anchor:start;fill:#000000;fill-opacity:1;stroke:none;stroke-width:1px;stroke-linecap:butt;stroke-linejoin:miter;stroke-opacity:1;font-family:Gentium" x="1318.8832" y="257.02612" id="text2474">
			<tspan id="tspan2476" x="1318.8832" y="257.02612">
				Nordelbien
			</tspan>
		</text>
		<text style="font-size:20px;font-style:normal;font-variant:normal;font-weight:normal;font-stretch:normal;text-align:start;line-height:100%;writing-mode:lr-tb;text-anchor:start;fill:#000000;fill-opacity:1;stroke:none;stroke-width:1px;stroke-linecap:butt;stroke-linejoin:miter;stroke-opacity:1;font-family:Gentium" x="1505.6945" y="328.203" id="text2478">
			<tspan id="tspan2480" x="1505.6945" y="328.203">
				Mecklenburg
			</tspan>
		</text>
		<text style="font-size:20px;font-style:normal;font-variant:normal;font-weight:normal;font-stretch:normal;text-align:start;line-height:100%;writing-mode:lr-tb;text-anchor:start;fill:#000000;fill-opacity:1;stroke:none;stroke-width:1px;stroke-linecap:butt;stroke-linejoin:miter;stroke-opacity:1;font-family:Gentium" x="1644.5768" y="268.13055" id="text2482">
			<tspan id="tspan2484" x="1644.5768" y="268.13055">
				Pommern
			</tspan>
		</text>
		<text style="font-size:20px;font-style:normal;font-variant:normal;font-weight:normal;font-stretch:normal;text-align:start;line-height:100%;writing-mode:lr-tb;text-anchor:start;fill:#000000;fill-opacity:1;stroke:none;stroke-width:1px;stroke-linecap:butt;stroke-linejoin:miter;stroke-opacity:1;font-family:Gentium" x="1312.8121" y="461.50394" id="text2486">
			<tspan id="tspan2488" x="1312.8121" y="461.50394">
				Hannover
			</tspan>
		</text>
		<text style="font-size:20px;font-style:normal;font-variant:normal;font-weight:normal;font-stretch:normal;text-align:start;line-height:100%;writing-mode:lr-tb;text-anchor:start;fill:#000000;fill-opacity:1;stroke:none;stroke-width:1px;stroke-linecap:butt;stroke-linejoin:miter;stroke-opacity:1;font-family:Gentium" x="1278.4474" y="415.01117" id="text2490">
			<tspan id="tspan2492" x="1278.4474" y="415.01117">
				Bremen
			</tspan>
		</text>
		<text style="font-size:20px;font-style:normal;font-variant:normal;font-weight:normal;font-stretch:normal;text-align:start;line-height:100%;writing-mode:lr-tb;text-anchor:start;fill:#000000;fill-opacity:1;stroke:none;stroke-width:1px;stroke-linecap:butt;stroke-linejoin:miter;stroke-opacity:1;font-family:Gentium" x="1170.4717" y="415.21814" id="text2494">
			<tspan id="tspan2496" x="1170.4717" y="415.21814">
				Oldenburg
			</tspan>
		</text>
		<text style="font-size:20px;font-style:normal;font-variant:normal;font-weight:normal;font-stretch:normal;text-align:start;line-height:100%;writing-mode:lr-tb;text-anchor:start;fill:#000000;fill-opacity:1;stroke:none;stroke-width:1px;stroke-linecap:butt;stroke-linejoin:miter;stroke-opacity:1;font-family:Gentium" x="1102.6537" y="491.72537" id="text2498">
			<tspan id="tspan2500" x="1102.6537" y="491.72537">
				Reformierte
			</tspan>
			<tspan x="1102.6537" y="511.72537" id="tspan2502">
				Kirche
			</tspan>
		</text>
		<text style="font-size:20px;font-style:normal;font-variant:normal;font-weight:normal;font-stretch:normal;text-align:start;line-height:100%;writing-mode:lr-tb;text-anchor:start;fill:#000000;fill-opacity:1;stroke:none;stroke-width:1px;stroke-linecap:butt;stroke-linejoin:miter;stroke-opacity:1;font-family:Gentium" x="1145.1958" y="627.3075" id="text2504">
			<tspan id="tspan2506" x="1145.1958" y="627.3075">
				Westfalen
			</tspan>
		</text>
		<text style="font-size:20px;font-style:normal;font-variant:normal;font-weight:normal;font-stretch:normal;text-align:start;line-height:100%;writing-mode:lr-tb;text-anchor:start;fill:#000000;fill-opacity:1;stroke:none;stroke-width:1px;stroke-linecap:butt;stroke-linejoin:miter;stroke-opacity:1;font-family:Gentium" x="1037.1216" y="766.48029" id="text2508">
			<tspan id="tspan2510" x="1037.1216" y="766.48029">
				Rheinland
			</tspan>
		</text>
		<text style="font-size:20px;font-style:normal;font-variant:normal;font-weight:normal;font-stretch:normal;text-align:start;line-height:100%;writing-mode:lr-tb;text-anchor:start;fill:#000000;fill-opacity:1;stroke:none;stroke-width:1px;stroke-linecap:butt;stroke-linejoin:miter;stroke-opacity:1;font-family:Gentium" x="1280.4376" y="719.02692" id="text2512">
			<tspan id="tspan2514" x="1280.4376" y="719.02692">
				Kurhessen-
			</tspan>
			<tspan x="1280.4376" y="739.02692" id="tspan2516">
				Waldeck
			</tspan>
		</text>
		<text style="font-size:16px;font-style:normal;font-variant:normal;font-weight:normal;font-stretch:normal;text-align:start;line-height:100%;writing-mode:lr-tb;text-anchor:start;fill:#000000;fill-opacity:1;stroke:none;stroke-width:1px;stroke-linecap:butt;stroke-linejoin:miter;stroke-opacity:1;font-family:Gentium" x="1317.25" y="532.18134" id="text2518">
			<tspan id="tspan2520" x="1317.25" y="532.18134">
				Schaumburg-
			</tspan>
			<tspan x="1317.25" y="548.18134" id="tspan2522">
				Lippe
			</tspan>
		</text>
		<text style="font-size:20px;font-style:normal;font-variant:normal;font-weight:normal;font-stretch:normal;text-align:start;line-height:100%;writing-mode:lr-tb;text-anchor:start;fill:#000000;fill-opacity:1;stroke:none;stroke-width:1px;stroke-linecap:butt;stroke-linejoin:miter;stroke-opacity:1;font-family:Gentium" x="1263.3292" y="594.80487" id="text2524">
			<tspan id="tspan2526" x="1263.3292" y="594.80487">
				Lippe
			</tspan>
		</text>
		<text style="font-size:20px;font-style:normal;font-variant:normal;font-weight:normal;font-stretch:normal;text-align:start;line-height:100%;writing-mode:lr-tb;text-anchor:start;fill:#000000;fill-opacity:1;stroke:none;stroke-width:1px;stroke-linecap:butt;stroke-linejoin:miter;stroke-opacity:1;font-family:Gentium" x="1384.5315" y="573.63733" id="text2528">
			<tspan id="tspan2530" x="1384.5315" y="573.63733">
				Braunschweig
			</tspan>
		</text>
		<text style="font-size:20px;font-style:normal;font-variant:normal;font-weight:normal;font-stretch:normal;text-align:start;line-height:100%;writing-mode:lr-tb;text-anchor:start;fill:#000000;fill-opacity:1;stroke:none;stroke-width:1px;stroke-linecap:butt;stroke-linejoin:miter;stroke-opacity:1;font-family:Gentium" x="1574.207" y="598.0907" id="text2532">
			<tspan id="tspan2534" x="1574.207" y="598.0907">
				Anhalt
			</tspan>
		</text>
		<text style="font-size:20px;font-style:normal;font-variant:normal;font-weight:normal;font-stretch:normal;text-align:start;line-height:100%;writing-mode:lr-tb;text-anchor:start;fill:#000000;fill-opacity:1;stroke:none;stroke-width:1px;stroke-linecap:butt;stroke-linejoin:miter;stroke-opacity:1;font-family:Gentium" x="1614.7393" y="484.75034" id="text2536">
			<tspan id="tspan2538" x="1614.7393" y="484.75034">
				Berlin-Brandenburg-
			</tspan>
			<tspan x="1614.7393" y="504.75034" id="tspan2540">
				schlesische Oberlausitz
			</tspan>
		</text>
		<text style="font-size:20px;font-style:normal;font-variant:normal;font-weight:normal;font-stretch:normal;text-align:start;line-height:100%;writing-mode:lr-tb;text-anchor:start;fill:#000000;fill-opacity:1;stroke:none;stroke-width:1px;stroke-linecap:butt;stroke-linejoin:miter;stroke-opacity:1;font-family:Gentium" x="1675.3502" y="747.29303" id="text2542">
			<tspan id="tspan2544" x="1675.3502" y="747.29303">
				Sachsen
			</tspan>
		</text>
		<text style="font-size:20px;font-style:normal;font-variant:normal;font-weight:normal;font-stretch:normal;text-align:start;line-height:100%;writing-mode:lr-tb;text-anchor:start;fill:#000000;fill-opacity:1;stroke:none;stroke-width:1px;stroke-linecap:butt;stroke-linejoin:miter;stroke-opacity:1;font-family:Gentium" x="1505.3988" y="658.52429" id="text2546">
			<tspan id="tspan2548" x="1505.3988" y="658.52429">
				Kirchenprovinz Sachsen
			</tspan>
		</text>
		<text style="font-size:20px;font-style:normal;font-variant:normal;font-weight:normal;font-stretch:normal;text-align:start;line-height:100%;writing-mode:lr-tb;text-anchor:start;fill:#000000;fill-opacity:1;stroke:none;stroke-width:1px;stroke-linecap:butt;stroke-linejoin:miter;stroke-opacity:1;font-family:Gentium" x="1469.3792" y="791.75623" id="text2550">
			<tspan id="tspan2552" x="1469.3792" y="791.75623">
				Thringen
			</tspan>
		</text>
		<text style="font-size:20px;font-style:normal;font-variant:normal;font-weight:normal;font-stretch:normal;text-align:start;line-height:100%;writing-mode:lr-tb;text-anchor:start;fill:#000000;fill-opacity:1;stroke:none;stroke-width:1px;stroke-linecap:butt;stroke-linejoin:miter;stroke-opacity:1;font-family:Gentium" x="1162.3436" y="834.14062" id="text2554">
			<tspan id="tspan2556" x="1162.3436" y="834.14062">
				Hessen
			</tspan>
			<tspan x="1162.3436" y="854.14062" id="tspan2558">
				und Nassau
			</tspan>
		</text>
		<text style="font-size:20px;font-style:normal;font-variant:normal;font-weight:normal;font-stretch:normal;text-align:start;line-height:100%;writing-mode:lr-tb;text-anchor:start;fill:#000000;fill-opacity:1;stroke:none;stroke-width:1px;stroke-linecap:butt;stroke-linejoin:miter;stroke-opacity:1;font-family:Gentium" x="1132.048" y="992.68793" id="text2560">
			<tspan id="tspan2562" x="1132.048" y="992.68793">
				Pfalz
			</tspan>
		</text>
		<text style="font-size:20px;font-style:normal;font-variant:normal;font-weight:normal;font-stretch:normal;text-align:start;line-height:100%;writing-mode:lr-tb;text-anchor:start;fill:#000000;fill-opacity:1;stroke:none;stroke-width:1px;stroke-linecap:butt;stroke-linejoin:miter;stroke-opacity:1;font-family:Gentium" x="1531.9507" y="1054.2891" id="text2564">
			<tspan id="tspan2566" x="1531.9507" y="1054.2891">
				Bayern
			</tspan>
		</text>
		<text style="font-size:20px;font-style:normal;font-variant:normal;font-weight:normal;font-stretch:normal;text-align:start;line-height:100%;writing-mode:lr-tb;text-anchor:start;fill:#000000;fill-opacity:1;stroke:none;stroke-width:1px;stroke-linecap:butt;stroke-linejoin:miter;stroke-opacity:1;font-family:Gentium" x="1253.2307" y="1118.9198" id="text2568">
			<tspan id="tspan2570" x="1253.2307" y="1118.9198">
				Wrttemberg
			</tspan>
		</text>
		<text style="font-size:20px;font-style:normal;font-variant:normal;font-weight:normal;font-stretch:normal;text-align:start;line-height:100%;writing-mode:lr-tb;text-anchor:start;fill:#000000;fill-opacity:1;stroke:none;stroke-width:1px;stroke-linecap:butt;stroke-linejoin:miter;stroke-opacity:1;font-family:Gentium" x="1153.2549" y="1213.8463" id="text2572">
			<tspan id="tspan2574" x="1153.2549" y="1213.8463">
				Baden
			</tspan>
		</text>
	</g>
	<g id="layer3">
		<path style="fill:none;fill-rule:evenodd;stroke:#000000;stroke-width:1px;stroke-linecap:butt;stroke-linejoin:miter;stroke-opacity:1;marker-end:url(#Arrow1Mend)" d="M 522.43679,420.31299 C 520.59815,421.36364 496.17049,425.30358 496.17049,425.30358" id="path2339" />
		<path style="fill:none;fill-rule:evenodd;stroke:#000000;stroke-width:1px;stroke-linecap:butt;stroke-linejoin:miter;stroke-opacity:1;marker-end:url(#Arrow1Mend)" d="M 481.1987,506.2038 L 454.1444,494.38396" id="path2341" />
		<path style="fill:none;fill-rule:evenodd;stroke:#000000;stroke-width:1px;stroke-linecap:butt;stroke-linejoin:miter;stroke-opacity:1;marker-end:url(#Arrow1Mend)" d="M 525.85141,513.2957 L 544.23783,508.56777" id="path2343" />
		<path style="fill:none;fill-rule:evenodd;stroke:#000000;stroke-width:1px;stroke-linecap:butt;stroke-linejoin:miter;stroke-opacity:1;marker-end:url(#Arrow1Mend)" d="M 532.68065,583.42674 C 532.68065,584.74005 533.7313,608.64239 533.7313,608.64239" id="path2346" />
		<path style="fill:none;fill-rule:evenodd;stroke:#000000;stroke-width:1px;stroke-linecap:butt;stroke-linejoin:miter;stroke-opacity:1;marker-end:url(#Arrow1Mend)" d="M 468.06554,599.44918 L 475.15745,618.09826" id="path2348" />
		<path style="fill:none;fill-rule:evenodd;stroke:#000000;stroke-width:1px;stroke-linecap:butt;stroke-linejoin:miter;stroke-opacity:1;marker-end:url(#Arrow1Mend)" d="M 266,685.25146 L 254,702.25146" id="path2350" />
		<path style="fill:none;fill-rule:evenodd;stroke:#000000;stroke-width:1px;stroke-linecap:butt;stroke-linejoin:miter;stroke-opacity:1;marker-end:url(#Arrow1Mend)" d="M 233,691.25146 L 199,670.25146" id="path2352" />
		<path style="fill:none;fill-rule:evenodd;stroke:#000000;stroke-width:1px;stroke-linecap:butt;stroke-linejoin:miter;stroke-opacity:1;marker-end:url(#Arrow1Mend)" d="M 439,672.25146 L 393,657.25146" id="path2354" />
		<path style="fill:none;fill-rule:evenodd;stroke:#000000;stroke-width:1px;stroke-linecap:butt;stroke-linejoin:miter;stroke-opacity:1;marker-end:url(#Arrow1Mend)" d="M 327,476.25146 L 328,511.25146" id="path2356" />
	</g>
</svg>
