<svg width="24" height="24" xmlns="http://www.w3.org/2000/svg">
  <g fill="none" fill-rule="evenodd">
    <g stroke="currentColor" stroke-linecap="round" stroke-linejoin="round">
      <path d="M16.5 3.5h-3v-3h-3v3h-3v3h3v7h3v-7h3zM14.5 23.5h6v-3h-6z" />
      <path
        d="M19.5 20.5v-1.531s3.186-3.155 4-3.969V6.937S21 6.031 21 13l-2.969 2.969.688-3c.344-1.438-.971-2.053-1.688-.938-.66 1.027-1.531 3.961-1.531 3.961V20.5M3.5 23.5h6v-3h-6zM4.5 20.5v-1.531S1.5 15.814.5 15V6.937S3 6.031 3 13l2.969 2.969-.688-3c-.344-1.438.971-2.053 1.688-.938.66 1.027 1.531 3.961 1.531 3.961V20.5"
      />
    </g>
  </g>
</svg>
