<svg width="21" height="24" xmlns="http://www.w3.org/2000/svg">
  <g fill="none" fill-rule="evenodd">
    <g stroke="currentColor" stroke-linecap="round" stroke-linejoin="round">
      <path d="M12.56 9a3 3 0 11-6 0 3 3 0 016 0h0z" />
      <path
        d="M12.53 9.53l4.53 4.531c.586.586.586 1.414 0 2-.585.584-1.414.586-2 0l-4.3-4.31M7.439 11.121l4.242-4.241M13.5 14.5v6M12 20.5h3M20.5 21c0 1.381-3.358 2.5-7.5 2.5-4.142 0-7.5-1.119-7.5-2.5s3.358-2.5 7.5-2.5c4.142 0 7.5 1.119 7.5 2.5h0zM9.94 14l-3.799 5.987"
      />
      <path
        d="M20.5 21L18.5.5l-4.439 7M3 2.5c-.006 1.57.76 2.463 2.5 2.5-1.615-.006-2.418.86-2.5 2.5C2.986 5.953 2.293 4.998.5 5c1.605-.022 2.494-.797 2.5-2.5h0zM12.5.5c-.006 1.57.76 2.463 2.5 2.5-1.615-.006-2.418.86-2.5 2.5-.014-1.547-.707-2.502-2.5-2.5 1.605-.022 2.494-.797 2.5-2.5h0z"
      />
    </g>
  </g>
</svg>
