<svg width="24" height="24" xmlns="http://www.w3.org/2000/svg">
  <g stroke="currentColor" fill="none" fill-rule="evenodd" stroke-linejoin="round">
    <path
      d="M7 12.5V12c0-.55.433-1.123.961-1.274L10.5 10V8.605M13.5 8.604V10l2.538.726c.529.15.962.724.962 1.273v.5"/>
    <path
      d="M15 5.77c0 1.809-1.344 3.274-3 3.274-1.657 0-3-1.466-3-3.274 0-1.805 1.343-3.27 3-3.27 1.656 0 3 1.465 3 3.27h0z"/>
    <path d="M14.958 5.213c-.5.5-1.919.46-2.458-.542-1 1-2.625 1-3.434.429"/>
    <path
      d="M7 17.015a2.5 2.5 0 11-5 0 2.5 2.5 0 015 0h0zM14.5 17.015a2.5 2.5 0 11-5 0 2.5 2.5 0 015 0h0zM22 17.015a2.5 2.5 0 11-5 0 2.5 2.5 0 015 0h0z"
      stroke-linecap="round"/>
    <path
      d="M19.5 19.507c-1.733 0-3.194 1.112-3.75 2.654A3.987 3.987 0 0012 19.513a3.99 3.99 0 00-3.75 2.65c-.556-1.541-2.017-2.656-3.75-2.656-2.21 0-4 1.993-4 3.993h23c0-2-1.79-3.993-4-3.993h0zM20.5 10.5c0 1.101-.9 2-2 2h-13c-1.1 0-2-.899-2-2v-8c0-1.1.9-2 2-2h13c1.1 0 2 .9 2 2v8h0z"
      stroke-linecap="round"/>
  </g>
</svg>
