<svg width="24" height="22" xmlns="http://www.w3.org/2000/svg">
  <g stroke="currentColor" fill="none" fill-rule="evenodd" stroke-linejoin="round">
    <path
      d="M14.5 3a2.5 2.5 0 11-5 0 2.5 2.5 0 015 0h0zM20.5 4a1.5 1.5 0 11-3.001-.001A1.5 1.5 0 0120.5 4h0zM6.5 4a1.5 1.5 0 11-3.001-.001A1.5 1.5 0 016.5 4h0z"
    />
    <path
      d="M17 17.698c3.848.324 6.5 1.01 6.5 1.802 0 1.104-5.148 2-11.5 2-6.351 0-11.5-.896-11.5-2 0-.79 2.635-1.473 6.458-1.798"
      stroke-linecap="round"
    />
    <path
      d="M14.5 16.5h-5V10a2.5 2.5 0 115 0v6.5h0zM20.5 14.5h-3V9a1.5 1.5 0 013 0v5.5h0zM6.5 14.5h-3V9a1.5 1.5 0 013 0v5.5h0z"
    />
  </g>
</svg>
